<?xml version="1.0" encoding="UTF-8"?>
<svg width="279px" height="278px" viewBox="0 0 279 278" version="1.1" xmlns="http://www.w3.org/2000/svg" xmlns:xlink="http://www.w3.org/1999/xlink">
    <!-- Generator: Sketch 44.1 (41455) - http://www.bohemiancoding.com/sketch -->
    <title>CALENDAR</title>
    <desc>Created with Sketch.</desc>
    <defs>
        <polygon id="path-1" points="0 279.075307 280 279.075307 280 1.06112284 0 1.06112284"></polygon>
    </defs>
    <g id="0.0-Home" stroke="none" stroke-width="1" fill="none" fill-rule="evenodd">
        <g transform="translate(-112.000000, -1002.000000)" id="Group-17">
            <g transform="translate(0.000000, 916.000000)">
                <g id="Group-14" transform="translate(112.000000, 85.000000)">
                    <g id="CALENDAR">
                        <g id="Group-3" transform="translate(0.000000, 0.073217)" fill="#00A3DA">
                            <path d="M279.003863,139.500302 C279.003863,215.99877 216.546763,278.013972 139.501878,278.013972 C62.4569924,278.013972 -0.00010687023,215.99877 -0.00010687023,139.500302 C-0.00010687023,63.0018342 62.4569924,0.987693141 139.501878,0.987693141 C216.546763,0.987693141 279.003863,63.0018342 279.003863,139.500302" id="Fill-1"></path>
                        </g>
                        <path d="M180.602885,80.0771047 C175.97113,80.0771047 172.21571,76.3493801 172.21571,71.7504737 C172.21571,67.1505062 175.97113,63.4227817 180.602885,63.4227817 C185.234641,63.4227817 188.988992,67.1505062 188.988992,71.7504737 C188.988992,76.3493801 185.234641,80.0771047 180.602885,80.0771047 M139.501664,80.0771047 C134.869908,80.0771047 131.114489,76.3493801 131.114489,71.7504737 C131.114489,67.1505062 134.869908,63.4227817 139.501664,63.4227817 C144.13342,63.4227817 147.88884,67.1505062 147.88884,71.7504737 C147.88884,76.3493801 144.13342,80.0771047 139.501664,80.0771047 M98.4015115,80.0771047 C93.768687,80.0771047 90.0143359,76.3493801 90.0143359,71.7504737 C90.0143359,67.1505062 93.768687,63.4227817 98.4015115,63.4227817 C103.033267,63.4227817 106.787618,67.1505062 106.787618,71.7504737 C106.787618,76.3493801 103.033267,80.0771047 98.4015115,80.0771047 M199.875863,51.4671106 L79.3444122,51.4671106 C70.5863969,51.4671106 63.4848702,58.5182719 63.4848702,67.2152347 L63.4848702,92.8763684 L215.735405,92.8763684 L215.735405,67.2152347 C215.735405,58.5182719 208.633878,51.4671106 199.875863,51.4671106" id="Fill-4" fill="#FFF200"></path>
                        <path d="M98.4009771,79.9946554 C93.8151756,79.9946554 90.0971603,76.303009 90.0971603,71.7497309 C90.0971603,67.1964528 93.8151756,63.5058676 98.4009771,63.5058676 C102.986779,63.5058676 106.704794,67.1964528 106.704794,71.7497309 C106.704794,76.303009 102.986779,79.9946554 98.4009771,79.9946554 M98.4009771,59.7961821 C91.7515115,59.7961821 86.3609771,65.1484857 86.3609771,71.7497309 C86.3609771,78.3530984 91.7515115,83.7043409 98.4009771,83.7043409 C105.050443,83.7043409 110.440977,78.3530984 110.440977,71.7497309 C110.440977,65.1484857 105.050443,59.7961821 98.4009771,59.7961821" id="Fill-6" fill="#004C81"></path>
                        <path d="M103.737649,64.750883 C103.737649,67.5628585 101.442076,69.8432115 98.6089466,69.8432115 C95.7758168,69.8432115 93.4791756,67.5628585 93.4791756,64.750883 L93.4791756,46.4157414 C93.4791756,43.6037659 95.7758168,41.3234129 98.6089466,41.3234129 C101.442076,41.3234129 103.737649,43.6037659 103.737649,46.4157414 L103.737649,64.750883 Z" id="Fill-8" fill="#004C81"></path>
                        <path d="M139.501664,79.9946554 C134.915863,79.9946554 131.198916,76.303009 131.198916,71.7497309 C131.198916,67.1964528 134.915863,63.5058676 139.501664,63.5058676 C144.087466,63.5058676 147.805481,67.1964528 147.805481,71.7497309 C147.805481,76.303009 144.087466,79.9946554 139.501664,79.9946554 M139.501664,59.7961821 C132.852198,59.7961821 127.461664,65.1484857 127.461664,71.7497309 C127.461664,78.3530984 132.852198,83.7043409 139.501664,83.7043409 C146.15113,83.7043409 151.541664,78.3530984 151.541664,71.7497309 C151.541664,65.1484857 146.15113,59.7961821 139.501664,59.7961821" id="Fill-10" fill="#004C81"></path>
                        <path d="M144.838336,64.750883 C144.838336,67.5628585 142.542763,69.8432115 139.709634,69.8432115 C136.876504,69.8432115 134.579863,67.5628585 134.579863,64.750883 L134.579863,46.4157414 C134.579863,43.6037659 136.876504,41.3234129 139.709634,41.3234129 C142.542763,41.3234129 144.838336,43.6037659 144.838336,46.4157414 L144.838336,64.750883 Z" id="Fill-12" fill="#004C81"></path>
                        <path d="M180.602885,79.9946554 C176.016015,79.9946554 172.299069,76.303009 172.299069,71.7497309 C172.299069,67.1964528 176.016015,63.5058676 180.602885,63.5058676 C185.188687,63.5058676 188.906702,67.1964528 188.906702,71.7497309 C188.906702,76.303009 185.188687,79.9946554 180.602885,79.9946554 M180.602885,59.7961821 C173.95342,59.7961821 168.562885,65.1484857 168.562885,71.7497309 C168.562885,78.3530984 173.95342,83.7043409 180.602885,83.7043409 C187.252351,83.7043409 192.641817,78.3530984 192.641817,71.7497309 C192.641817,65.1484857 187.252351,59.7961821 180.602885,59.7961821" id="Fill-14" fill="#004C81"></path>
                        <path d="M185.939023,64.750883 C185.939023,67.5628585 183.64345,69.8432115 180.810321,69.8432115 C177.977191,69.8432115 175.68055,67.5628585 175.68055,64.750883 L175.68055,46.4157414 C175.68055,43.6037659 177.977191,41.3234129 180.810321,41.3234129 C183.64345,41.3234129 185.939023,43.6037659 185.939023,46.4157414 L185.939023,64.750883 Z" id="Fill-16" fill="#004C81"></path>
                        <path d="M63.4849771,99.0591067 L63.4849771,216.353503 C63.4849771,225.050466 70.5865038,232.101627 79.3445191,232.101627 L199.875969,232.101627 C208.632916,232.101627 215.735511,225.050466 215.735511,216.353503 L215.735511,99.0591067 L63.4849771,99.0591067 Z" id="Fill-18" fill="#FFFFFF"></path>
                        <mask id="mask-2" fill="white">
                            <use xlink:href="#path-1"></use>
                        </mask>
                        <g id="Clip-21"></g>
                        <polygon id="Fill-20" fill="#C7C7C7" mask="url(#mask-2)" points="88.9822901 135.864046 107.056183 135.864046 107.056183 117.918337 88.9822901 117.918337"></polygon>
                        <polygon id="Fill-22" fill="#C7C7C7" mask="url(#mask-2)" points="116.776031 135.864046 134.849924 135.864046 134.849924 117.918337 116.776031 117.918337"></polygon>
                        <polygon id="Fill-23" fill="#C7C7C7" mask="url(#mask-2)" points="144.567634 135.864046 162.642595 135.864046 162.642595 117.918337 144.567634 117.918337"></polygon>
                        <polygon id="Fill-24" fill="#C7C7C7" mask="url(#mask-2)" points="172.361374 135.864046 190.435267 135.864046 190.435267 117.918337 172.361374 117.918337"></polygon>
                        <polygon id="Fill-25" fill="#C7C7C7" mask="url(#mask-2)" points="88.9822901 162.726371 107.056183 162.726371 107.056183 144.7796 88.9822901 144.7796"></polygon>
                        <polygon id="Fill-26" fill="#C7C7C7" mask="url(#mask-2)" points="116.776031 162.726371 134.849924 162.726371 134.849924 144.7796 116.776031 144.7796"></polygon>
                        <polygon id="Fill-27" fill="#00A3DA" mask="url(#mask-2)" points="144.567634 162.726371 162.642595 162.726371 162.642595 144.7796 144.567634 144.7796"></polygon>
                        <polygon id="Fill-28" fill="#C7C7C7" mask="url(#mask-2)" points="172.361374 162.726371 190.435267 162.726371 190.435267 144.7796 172.361374 144.7796"></polygon>
                        <polygon id="Fill-29" fill="#00A3DA" mask="url(#mask-2)" points="88.9822901 189.588696 107.056183 189.588696 107.056183 171.642986 88.9822901 171.642986"></polygon>
                        <polygon id="Fill-30" fill="#C7C7C7" mask="url(#mask-2)" points="116.776031 189.588696 134.849924 189.588696 134.849924 171.642986 116.776031 171.642986"></polygon>
                        <polygon id="Fill-31" fill="#C7C7C7" mask="url(#mask-2)" points="144.567634 189.588696 162.642595 189.588696 162.642595 171.642986 144.567634 171.642986"></polygon>
                        <polygon id="Fill-32" fill="#C7C7C7" mask="url(#mask-2)" points="172.361374 189.588696 190.435267 189.588696 190.435267 171.642986 172.361374 171.642986"></polygon>
                        <polygon id="Fill-33" fill="#C7C7C7" mask="url(#mask-2)" points="88.9822901 216.452082 107.056183 216.452082 107.056183 198.506372 88.9822901 198.506372"></polygon>
                        <polygon id="Fill-34" fill="#C7C7C7" mask="url(#mask-2)" points="116.776031 216.452082 134.849924 216.452082 134.849924 198.506372 116.776031 198.506372"></polygon>
                        <polygon id="Fill-35" fill="#C7C7C7" mask="url(#mask-2)" points="144.567634 216.452082 162.642595 216.452082 162.642595 198.506372 144.567634 198.506372"></polygon>
                        <polygon id="Fill-36" fill="#C7C7C7" mask="url(#mask-2)" points="172.361374 216.452082 190.435267 216.452082 190.435267 198.506372 172.361374 198.506372"></polygon>
                    </g>
                </g>
            </g>
        </g>
    </g>
</svg>