<?xml version="1.0" encoding="UTF-8"?>
<svg width="591px" height="811px" viewBox="0 0 591 811" version="1.1" xmlns="http://www.w3.org/2000/svg" xmlns:xlink="http://www.w3.org/1999/xlink">
    <!-- Generator: Sketch 44.1 (41455) - http://www.bohemiancoding.com/sketch -->
    <title>girl-search-with-rainbow</title>
    <desc>Created with Sketch.</desc>
    <defs>
        <polygon id="path-1" points="208.84116 270.296583 0 270.296583 0 0.352694687 208.84116 0.352694687 417.68232 0.352694687 417.68232 270.296583"></polygon>
        <filter x="-0.2%" y="-0.7%" width="100.3%" height="102.7%" filterUnits="objectBoundingBox" id="filter-3">
            <feOffset dx="0" dy="2" in="SourceAlpha" result="shadowOffsetOuter1"></feOffset>
            <feColorMatrix values="0 0 0 0 0   0 0 0 0 0   0 0 0 0 0  0 0 0 0.5 0" type="matrix" in="shadowOffsetOuter1" result="shadowMatrixOuter1"></feColorMatrix>
            <feMerge>
                <feMergeNode in="shadowMatrixOuter1"></feMergeNode>
                <feMergeNode in="SourceGraphic"></feMergeNode>
            </feMerge>
        </filter>
    </defs>
    <g id="6.0-Search" stroke="none" stroke-width="1" fill="none" fill-rule="evenodd">
        <g id="6.0-Search-state1" transform="translate(-257.000000, -516.000000)">
            <g id="Group-11" transform="translate(0.000000, 516.000000)">
                <g id="Group-12">
                    <g id="girl-search-with-rainbow" transform="translate(257.000000, 0.000000)">
                        <g id="RAINBOW" transform="translate(46.000000, 540.000000)">
                            <g id="Group-3" transform="translate(0.000000, 0.417381)">
                                <mask id="mask-2" fill="white">
                                    <use xlink:href="#path-1"></use>
                                </mask>
                                <g id="Clip-2"></g>
                                <path d="M18.6873867,270.296583 C18.6873867,270.296583 9.72128667,229.482569 9.72128667,207.988215 C9.72128667,155.075541 30.4331867,105.394105 68.0415756,67.9784356 C105.651513,30.565076 155.653601,9.99096259 208.841005,9.99096259 C262.028409,9.99096259 312.03282,30.6112806 349.640435,68.0254102 C387.249598,105.44031 407.962272,155.067071 407.962272,207.979744 C407.962272,229.476409 404.526157,250.547221 397.943431,270.296583 L408.082253,270.296583 C414.310453,250.64117 417.68232,229.731304 417.68232,207.988215 C417.68232,93.2446205 324.181139,0.352694687 208.841005,0.352694687 C93.5016459,0.352694687 -0.000309629629,93.2446205 -0.000309629629,207.988215 C-0.000309629629,229.731304 2.66250519,250.64117 8.56249778,270.296583 L18.6873867,270.296583 Z" id="Fill-1" fill="#FF501F" mask="url(#mask-2)"></path>
                            </g>
                            <path d="M28.9831911,270.116154 C22.357117,250.398365 19.44118,229.379148 19.44118,207.807787 C19.44118,157.478717 39.1421393,110.225329 74.9151985,74.6362794 C110.688258,39.0479993 158.251239,19.4811449 208.841624,19.4811449 C259.432784,19.4811449 306.994217,39.0965141 342.767276,74.683254 C378.540336,110.270764 398.241295,157.469476 398.241295,207.799316 C398.241295,229.370677 394.61321,250.396055 387.658154,270.116154 L397.94405,270.116154 C404.526002,250.369102 407.962117,229.302911 407.962117,207.807787 C407.962117,154.895113 387.249443,105.276053 349.64028,67.861153 C312.032665,30.4470234 262.028254,9.84210695 208.841624,9.84210695 C155.654221,9.84210695 105.651358,30.4470234 68.0414207,67.861153 C30.4330319,105.276053 9.72113185,154.895113 9.72113185,207.807787 C9.72113185,229.30214 12.4334874,250.369872 18.6872319,270.116154 L28.9831911,270.116154 Z" id="Fill-4" fill="#FF7047"></path>
                            <path d="M39.3485074,270.116154 C32.3036593,250.431479 29.1624667,229.466937 29.1624667,207.807787 C29.1624667,160.060781 47.8517111,115.235442 81.7886667,81.4737818 C115.725622,47.7128915 160.847174,29.151756 208.841315,29.151756 C256.83623,29.151756 301.957007,47.7606362 335.893963,81.5207564 C369.830144,115.283187 388.520163,160.05308 388.520163,207.799316 C388.520163,229.458466 384.666048,250.429168 377.294541,270.116154 L387.659393,270.116154 C394.613674,250.398365 398.241759,229.379148 398.241759,207.807787 C398.241759,157.477177 378.540026,110.286936 342.767741,74.6994256 C306.994681,39.1111455 259.432474,19.512718 208.841315,19.512718 C158.25093,19.512718 110.687948,39.1111455 74.9148889,74.6994256 C39.1418296,110.288476 19.4408704,157.478717 19.4408704,207.807787 C19.4408704,229.379148 22.3575815,250.398365 28.9828815,270.116154 L39.3485074,270.116154 Z" id="Fill-6" fill="#FF9A00"></path>
                            <path d="M49.8007522,270.116154 C42.2821707,250.469212 38.8824374,229.569357 38.8824374,207.807787 C38.8824374,162.644385 56.5607411,120.247865 88.662367,88.3112843 C120.763219,56.3770136 163.444115,38.821597 208.841237,38.821597 C254.23836,38.821597 296.919256,56.4255284 329.020882,88.359799 C361.121734,120.2933 378.799263,162.635914 378.799263,207.799316 C378.799263,229.562426 374.68893,250.466902 366.842915,270.116154 L377.294463,270.116154 C384.666745,250.431479 388.520086,229.466937 388.520086,207.807787 C388.520086,160.060781 369.830841,115.298588 335.893886,81.536928 C301.95693,47.7760377 256.836152,29.1825591 208.841237,29.1825591 C160.847097,29.1825591 115.725545,47.7760377 81.7885893,81.536928 C47.8516337,115.298588 29.1623893,160.060781 29.1623893,207.807787 C29.1623893,229.466937 32.3035819,250.431479 39.34843,270.116154 L49.8007522,270.116154 Z" id="Fill-8" fill="#FFF200"></path>
                            <path d="M60.2734326,270.116154 C52.2772474,250.690994 48.6034919,229.60324 48.6034919,207.807787 C48.6034919,165.227219 65.2708548,125.258748 95.536377,95.1487867 C125.801125,65.0411357 166.040592,48.4922081 208.84147,48.4922081 C251.643121,48.4922081 291.881814,65.0881103 322.147336,95.1965314 C352.41131,125.304953 369.079447,165.218748 369.079447,207.799316 C369.079447,229.596309 364.699736,250.688684 356.373021,270.116154 L366.843147,270.116154 C374.689936,250.469212 378.799496,229.569357 378.799496,207.807787 C378.799496,162.642845 361.121192,120.309471 329.021114,88.3744305 C296.919488,56.4401598 254.238592,38.8531701 208.84147,38.8531701 C163.443573,38.8531701 120.763451,56.4401598 88.6625993,88.3744305 C56.5609733,120.311011 38.8818956,162.644385 38.8818956,207.807787 C38.8818956,229.569357 42.282403,250.469212 49.8009844,270.116154 L60.2734326,270.116154 Z" id="Fill-10" fill="#89D800"></path>
                            <path d="M70.960067,270.116154 C62.3399781,250.74798 58.3240819,229.751865 58.3240819,207.807787 C58.3240819,167.810053 73.9805041,130.270401 102.409923,101.987059 C130.838567,73.7052578 168.637378,58.1628192 208.841237,58.1628192 C249.045871,58.1628192 286.845456,73.7537726 315.2741,102.034034 C343.702745,130.317375 359.358393,167.801582 359.358393,207.799316 C359.358393,229.743394 354.639637,250.744129 345.688245,270.116154 L356.374337,270.116154 C364.701052,250.690994 369.079215,229.60324 369.079215,207.807787 C369.079215,165.227219 352.411852,125.321894 322.147104,95.212703 C291.881582,65.1042819 251.642889,48.5237812 208.841237,48.5237812 C166.04036,48.5237812 125.801667,65.1042819 95.5361448,95.212703 C65.2706226,125.321894 48.6032596,165.227219 48.6032596,207.807787 C48.6032596,229.60324 52.2770152,250.690994 60.2732004,270.116154 L70.960067,270.116154 Z" id="Fill-12" fill="#00A3DA"></path>
                            <path d="M81.5812256,267.658071 C72.3039478,248.524769 67.9110774,229.33877 67.9110774,207.305363 C67.9110774,169.890463 82.5565589,134.77963 109.149874,108.322138 C135.742414,81.8684966 171.099796,67.3302368 208.707411,67.3302368 C246.316574,67.3302368 281.673955,81.9154712 308.26727,108.369883 C334.859037,134.826605 349.504518,169.882763 349.504518,207.296892 C349.504518,229.331839 344.414981,250.478119 334.804077,269.613731 L345.555966,269.613731 C354.505811,250.245556 359.22534,229.249441 359.22534,207.305363 C359.22534,167.306859 343.568918,129.830354 315.141048,101.547782 C286.711629,73.2675207 248.912818,57.6919689 208.707411,57.6919689 C168.503552,57.6919689 130.705514,73.2675207 102.276096,101.547782 C73.8474515,129.830354 58.1902552,167.307629 58.1902552,207.305363 C58.1902552,229.249441 62.2069256,250.245556 70.8262404,269.613731 L81.5812256,267.658071 Z" id="Fill-14" fill="#A476E1"></path>
                        </g>
                        <g id="girl-search" transform="translate(37.000000, 181.000000)">
                            <g id="Group-13" transform="translate(98.000000, 0.000000)">
                                <path d="M178.537941,191.686778 C178.537941,191.686778 205.55934,185.185668 215.606146,181.293555 C225.660503,177.391379 255.56932,164.572819 255.56932,164.572819 C255.56932,164.572819 266.572724,154.989719 268.876114,152.509032 C271.184538,150.040925 276.153817,146.438142 277.576128,148.564086 C278.993405,150.684998 272.727682,156.29296 272.727682,156.29296 C272.727682,156.29296 282.422056,149.248413 284.478744,152.312791 C286.520327,155.394781 273.913362,160.698318 273.913362,160.698318 C273.913362,160.698318 285.098016,155.367106 287.466857,158.91957 C289.840732,162.456939 275.403642,165.589247 275.403642,165.589247 C275.403642,165.589247 288.184306,163.667092 287.711041,167.171754 C287.232742,170.678932 275.564753,170.039891 275.564753,170.039891 C275.564753,170.039891 282.583168,174.759738 280.229431,176.493199 C277.855556,178.211566 272.254418,176.664281 271.159364,175.003781 C271.159364,175.003781 263.670202,181.165244 259.020628,181.054544 C259.020628,181.054544 195.638404,218.757967 186.815038,213.945032 C177.971534,209.127064 178.537941,191.686778 178.537941,191.686778" id="Fill-123" fill="#EFC290"></path>
                                <path d="M99.0319912,371.750437 C108.275757,371.403242 114.00528,370.95541 117.529592,370.575507 C117.527074,370.550348 117.532109,370.525189 117.527074,370.492482 C116.817177,361.812594 118.763101,327.971092 118.763101,327.971092 L93.821045,323.319175 L92.7385779,360.730753 C92.7385779,360.730753 88.8265921,360.80623 84.2172962,361.256578 C83.3739788,364.753692 83.313562,372.346708 99.0319912,371.750437" id="Fill-124" fill="#EFC290"></path>
                                <path d="M90.6290257,384.335018 C114.415611,384.896065 118.511364,382.777669 117.529592,370.575507 C114.00528,370.95541 108.275757,371.403242 99.0319912,371.750437 C83.313562,372.346708 83.3739788,364.753692 84.2172962,361.256578 C78.4852553,361.817626 71.6883689,362.952301 70.0269078,365.256874 C67.0287256,369.418189 66.7946107,383.758874 90.6290257,384.335018" id="Fill-125" fill="#3AA3CF"></path>
                                <path d="M175.366061,374.905388 C166.122295,374.907904 160.385219,374.678956 156.843286,374.437429 C156.845804,374.407238 156.843286,374.382079 156.843286,374.359436 C157.223408,365.64684 153.976007,331.908491 153.976007,331.908491 L178.726743,326.308076 L181.236556,363.651724 C181.236556,363.651724 185.153577,363.578762 189.770425,363.847965 C190.747163,367.307341 191.099594,374.895324 175.366061,374.905388" id="Fill-126" fill="#EFC290"></path>
                                <path d="M184.247325,387.150321 C160.495983,388.622128 156.332261,386.66475 156.843286,374.437429 C160.385219,374.678956 166.122295,374.907904 175.366061,374.905388 C191.099594,374.895324 190.747163,367.307341 189.770425,363.847965 C195.525122,364.192644 202.359769,365.073213 204.104303,367.312372 C207.258562,371.347892 208.041463,385.673482 184.247325,387.150321" id="Fill-127" fill="#3AA3CF"></path>
                                <path d="M107.837735,188.156957 C107.837735,188.156957 81.3676386,185.880059 71.3661461,183.653479 C61.3747231,181.416835 31.5212875,173.630094 31.5212875,173.630094 C31.5212875,173.630094 20.0773446,166.218224 17.6304655,164.233171 C15.1785517,162.243087 10.0758521,159.578738 8.93296827,161.747453 C7.78253231,163.93881 14.3201301,168.308945 14.3201301,168.308945 C14.3201301,168.308945 4.35639808,163.080885 2.69493696,166.240867 C1.04606266,169.383239 13.6152678,172.596055 13.6152678,172.596055 C13.6152678,172.596055 2.39285311,169.164354 0.479655454,172.809908 C-1.4486464,176.447913 12.658669,177.351125 12.658669,177.351125 C12.658669,177.351125 0.260644669,177.353641 1.05361475,180.54633 C1.84658484,183.759147 12.9380965,181.530051 12.9380965,181.530051 C12.9380965,181.530051 6.69251312,186.929193 9.12680541,188.207275 C11.5535456,189.482841 16.7619745,187.251229 17.6480871,185.580665 C17.6480871,185.580665 25.4116418,190.250194 29.8371701,189.497937 C29.8371701,189.497937 94.1306809,215.824416 102.118281,210.108269 C110.083225,204.374511 107.837735,188.156957 107.837735,188.156957" id="Fill-128" fill="#EFC290"></path>
                                <path d="M86.8957729,277.056627 L59.3356572,303.634697 C59.3356572,303.634697 115.452765,355.475017 201.254646,319.024517 L188.967385,287.399532 C188.967385,287.399532 132.364426,292.408708 86.8957729,277.056627" id="Fill-129" fill="#3AA3CF"></path>
                                <path d="M88.4036748,184.466117 C88.4036748,184.466117 121.310675,191.384869 149.925566,192.995051 C178.537941,194.605234 201.773223,183.102494 201.773223,183.102494 L210.465685,212.895897 L186.057311,219.988247 C186.057311,219.988247 192.131714,288.415959 192.131714,288.423507 C192.098988,287.985739 163.519339,288.23733 161.153016,288.1694 C135.105837,287.44985 108.610566,282.571501 83.0542734,277.846623 L103.261165,214.035604 L82.0498446,210.093174 L88.4036748,184.466117" id="Fill-130" fill="#FAED2F"></path>
                                <path d="M42.7915321,108.618987 C42.7915321,108.618987 31.1537522,50.4108996 81.0177249,17.7795505 C130.891767,-14.8492827 222.86371,1.05126675 240.510441,47.8522194 C257.522796,92.9675126 245.774252,126.637932 239.697332,131.873541 C233.625447,137.109149 76.1994876,124.033966 76.4184984,125.229023 C76.6400265,126.426596 42.7915321,108.618987 42.7915321,108.618987" id="Fill-131" fill="#2C1913"></path>
                                <path d="M48.0830341,106.664125 C48.0830341,106.664125 34.5975079,97.2973932 33.1122624,109.846751 C31.9718959,119.543067 39.4610578,125.239087 49.4172377,125.447907 C49.4172377,125.447907 51.224706,193.943549 137.38657,196.230511 C225.517013,198.582887 234.609736,142.54603 234.609736,142.54603 C234.609736,142.54603 255.136333,144.176339 255.753088,131.088577 C256.233905,120.879015 248.070089,120.247522 238.793598,125.800134 C235.634304,127.692099 217.725767,106.566005 192.124162,102.034851 C192.124162,102.034851 189.448202,71.6653049 181.513467,59.0756927 C181.513467,59.0756927 182.404614,95.9866042 178.540458,100.022123 L127.591501,94.8443812 L128.379436,50.7882861 L122.224478,94.9123108 C122.224478,94.9123108 67.582546,99.5541642 48.0830341,106.664125" id="Fill-132" fill="#EFC290"></path>
                                <path d="M143.77816,138.747006 C144.608891,139.627574 141.786924,144.012805 143.599427,144.958787 C145.41193,145.882126 140.863051,145.82426 139.778067,144.362516 C138.708186,142.890709 142.761145,137.687808 143.77816,138.747006" id="Fill-133" fill="#C7A182"></path>
                                <path d="M106.747716,121.241306 C102.161076,121.299172 98.4479625,124.740936 97.8740032,129.158874 L115.835405,128.929926 C115.13306,124.519536 111.336873,121.173376 106.747716,121.241306" id="Fill-134" fill="#0A0A08"></path>
                                <path d="M180.853917,124.386193 C176.269795,124.446575 172.556681,127.893371 171.975169,132.306277 L189.934054,132.079845 C189.234226,127.674487 185.435522,124.325811 180.853917,124.386193" id="Fill-135" fill="#0A0A08"></path>
                                <path d="M128.359297,164.024351 C128.359297,164.024351 143.473559,164.019319 159.728187,163.126171 C159.728187,163.126171 144.671825,191.007483 128.359297,164.024351" id="Fill-136" fill="#C2365F"></path>
                                <path d="M279.816583,54.2275347 C276.596873,67.0511265 263.589646,74.8378671 250.756118,71.6200186 C237.930141,68.40217 230.136378,55.3999486 233.358606,42.5738408 C236.578316,29.750249 249.593095,21.9660243 262.416554,25.1813569 C275.247565,28.3992054 283.038811,41.4039428 279.816583,54.2275347" id="Fill-137" fill="#2C1913"></path>
                                <path d="M66.9355831,38.1533874 C63.7158729,50.9820111 50.701094,58.7586881 37.8751176,55.5408395 C25.0441065,52.322991 17.2503434,39.3283173 20.472571,26.4996936 C23.6947986,13.6786176 36.7045427,5.88936115 49.5355539,9.10720968 C62.3615303,12.3275741 70.1552934,25.3323115 66.9355831,38.1533874" id="Fill-138" fill="#2C1913"></path>
                                <path d="M167.187141,189.060169 C167.187141,189.060169 159.310304,213.912325 143.518872,213.7186 C127.727439,213.534938 124.807295,185.215858 124.807295,185.215858" id="Fill-172" fill="#EFC290"></path>
                                <path d="M131.125882,128.849417 C131.125882,138.875317 119.762495,147.006738 105.743287,147.006738 C91.7240797,147.006738 80.3606925,138.875317 80.3606925,128.849417 C80.3606925,118.821001 91.7240797,110.689581 105.743287,110.689581 C119.762495,110.689581 131.125882,118.821001 131.125882,128.849417 Z M205.078524,133.798211 C204.388766,143.801469 192.491697,151.130314 178.507732,150.169236 C164.521251,149.205643 153.741892,140.314418 154.434168,130.308645 C155.123926,120.305388 167.020994,112.971511 181.004959,113.93762 C194.991441,114.901214 205.770799,123.792439 205.078524,133.798211 Z" id="Stroke-179" stroke="#313335" stroke-width="2"></path>
                                <path d="M45.6009119,102.319149 L83.361392,119.930517 M204.194928,127.478246 L239.438043,122.446427 M131.135951,127.005255 C132.087516,125.986312 136.772332,121.185956 143.808369,121.450127 C151.284944,121.726877 155.169238,126.849269 156.042764,127.933626" id="Stroke-188" stroke="#313335" stroke-width="2"></path>
                            </g>
                            <g id="loupe" transform="translate(0.000000, 68.000000)">
                                <rect id="Rectangle-path" fill="#A7AFBA" transform="translate(75.842088, 75.841620) rotate(135.000000) translate(-75.842088, -75.841620) " x="73.7692478" y="67.5502611" width="4.14567954" height="16.5827182"></rect>
                                <path d="M42.1483509,84.2969474 C18.907614,84.2969474 0,65.3893333 0,42.1485965 C0,18.9078596 18.907614,0 42.1483509,0 C65.3890877,0 84.2967018,18.907614 84.2967018,42.1483509 C84.2967018,65.3890877 65.3893333,84.2969474 42.1483509,84.2969474 Z" id="Shape" fill="#F8E81C"></path>
                                <path d="M42.2075442,72.6258353 C25.4348622,72.6258353 11.7894737,58.9804468 11.7894737,42.2077648 C11.7894737,25.4350829 25.4348622,11.7894737 42.2075442,11.7894737 C58.9802261,11.7894737 72.6256146,25.4348622 72.6256146,42.2075442 C72.6256146,58.9802261 58.9802261,72.6258353 42.2075442,72.6258353 Z" id="Shape" fill="#FFFFFF"></path>
                                <path d="M19.3472632,44.2213333 C18.2022105,44.2213333 17.2742807,43.2931579 17.2742807,42.1483509 C17.2742807,28.4325263 28.4330175,17.2737895 42.1488421,17.2737895 C43.2938947,17.2737895 44.2218246,18.2019649 44.2218246,19.3467719 C44.2218246,20.4915789 43.2938947,21.4197544 42.1488421,21.4197544 C30.7189474,21.4197544 21.42,30.7187018 21.42,42.1485965 C21.4202456,43.2931579 20.4923158,44.2213333 19.3472632,44.2213333 Z" id="Shape" fill="#D8DBE2"></path>
                                <rect id="Rectangle-path" fill="#00A3DA" transform="translate(99.822152, 99.821410) rotate(135.000000) translate(-99.822152, -99.821410) " x="91.5307926" y="71.4374187" width="16.5827182" height="56.7679819" rx="8.29135908"></rect>
                                <path d="M87.5672982,74.8636491 L74.8641404,87.566807 C74.0545965,88.3763509 72.7420351,88.3763509 71.9324912,87.566807 C71.1229474,86.7572632 71.1229474,85.4449474 71.9324912,84.6351579 L84.6356491,71.932 C85.445193,71.1224561 86.7577544,71.1224561 87.5672982,71.932 C88.3768421,72.7415439 88.3768421,74.0541053 87.5672982,74.8636491 Z" id="Shape" fill="#D8DBE2"></path>
                            </g>
                        </g>
                        <g id="Group-16">
                            <g id="Group-14" filter="url(#filter-3)" fill="#FFFFFF">
                                <rect id="Rectangle-5" x="0" y="0" width="591" height="100" rx="10"></rect>
                                <polygon id="Triangle" transform="translate(333.500000, 120.000000) scale(-1, -1) translate(-333.500000, -120.000000) " points="333.5 90 356 150 311 150"></polygon>
                            </g>
                            <text id="Type-word-or-phrase" font-family="OpenSans, Open Sans" font-size="36" font-weight="normal" line-spacing="42" fill="#000000">
                                <tspan x="39" y="63">Type word or phrase to search.  </tspan>
                            </text>
                        </g>
                    </g>
                </g>
            </g>
        </g>
    </g>
</svg>