<?xml version="1.0" encoding="UTF-8"?>
<svg width="78px" height="78px" viewBox="0 0 78 78" version="1.1" xmlns="http://www.w3.org/2000/svg" xmlns:xlink="http://www.w3.org/1999/xlink">
    <!-- Generator: Sketch 44.1 (41455) - http://www.bohemiancoding.com/sketch -->
    <title>icon-search</title>
    <desc>Created with Sketch.</desc>
    <defs>
        <path d="M0.16,31.2203569 L0.16,29.8954824 C0.347985654,21.3557156 4.16812982,13.0054603 11.256,7.066 C22.578,-2.422 40.077,-1.911 51.01,8.078 C62.478,18.555 64.461,36.912 53.978,49.851 C54.911,50.745 55.838,51.6 56.729,52.491 C61.842,57.607 66.947,62.732 72.053,67.856 C73.462,69.269 73.559,70.992 72.317,72.341 C71.305,73.44 69.694,73.591 68.494,72.687 C68.244,72.498 68.019,72.272 67.796,72.05 C61.979,66.24 56.162,60.428 50.348,54.614 C50.17,54.436 50.017,54.234 49.833,54.02 C41.447,60.368 32.211,62.419 22.086,59.655 C14.861,57.683 9.17,53.431 5.107,47.158 C1.89768303,42.2034443 0.280563165,36.6965813 0.16,31.2203569 L0.16,31.2203569 Z M54.746,30.551 C54.748,17.101 43.8,6.104 30.46,6.155 C17.109,6.206 6.213,17.102 6.222,30.481 C6.232,44.056 17.09,54.55 29.977,54.811 C43.628,55.086 54.743,44.055 54.746,30.551 Z" id="path-1"></path>
    </defs>
    <g id="Page-1" stroke="none" stroke-width="1" fill="none" fill-rule="evenodd">
        <g id="icon-search" transform="translate(2.000000, 2.000000)">
            <g id="Group-65">
                <mask id="mask-2" fill="white">
                    <use xlink:href="#path-1"></use>
                </mask>
                <g id="Clip-64"></g>
                <polygon id="Fill-63" fill="#004E82" mask="url(#mask-2)" points="0.16 73.36 73.24 73.36 73.24 0.16 0.16 0.16"></polygon>
            </g>
            <path d="M54.746,30.551 C54.748,17.101 43.8,6.104 30.46,6.155 C17.109,6.206 6.213,17.102 6.222,30.481 C6.232,44.056 17.09,54.55 29.977,54.811 C43.628,55.086 54.742,44.055 54.746,30.551 M53.978,49.851 C54.911,50.745 55.838,51.6 56.729,52.491 C61.841,57.608 66.947,62.732 72.053,67.856 C73.462,69.269 73.559,70.992 72.316,72.341 C71.305,73.44 69.694,73.591 68.494,72.687 C68.244,72.498 68.019,72.272 67.796,72.05 C61.979,66.24 56.162,60.428 50.348,54.614 C50.17,54.436 50.017,54.234 49.833,54.02 C41.447,60.368 32.21,62.419 22.085,59.655 C14.861,57.683 9.17,53.431 5.107,47.158 C-3.374,34.065 -0.736,17.115 11.256,7.066 C22.578,-2.422 40.077,-1.911 51.01,8.078 C62.478,18.555 64.461,36.912 53.978,49.851" id="Stroke-66" stroke="#004E82" stroke-width="4"></path>
        </g>
    </g>
</svg>