<?xml version="1.0" encoding="UTF-8"?>
<svg width="75px" height="76px" viewBox="0 0 75 76" version="1.1" xmlns="http://www.w3.org/2000/svg" xmlns:xlink="http://www.w3.org/1999/xlink">
    <!-- Generator: Sketch 44.1 (41455) - http://www.bohemiancoding.com/sketch -->
    <title>icon-share</title>
    <desc>Created with Sketch.</desc>
    <defs>
        <path d="M13.094,25.756 C14.584,25.751 16.544,26.318 18.388,27.284 C18.797,27.498 19.079,27.485 19.46,27.23 C25.42,23.236 31.388,19.253 37.366,15.286 C37.774,15.015 37.832,14.708 37.783,14.293 C37.179,9.166 40.159,3.854 45.279,1.606 C53.742,-2.109 63.501,4.756 62.732,13.925 C62.167,20.662 56.702,25.634 49.96,25.526 C47.964,25.494 46.103,24.919 44.352,23.996 C43.945,23.782 43.665,23.797 43.287,24.05 C37.349,28.031 31.403,32 25.45,35.959 C25.072,36.21 25.007,36.482 24.958,36.917 C24.807,38.246 25.489,38.801 26.606,39.359 C35.722,43.911 44.804,48.533 53.887,53.15 C54.344,53.383 54.64,53.385 55.074,53.073 C62.599,47.669 73.59,52.423 74.753,61.571 C75.601,68.241 71.149,74.335 64.634,75.422 C57.849,76.555 51.534,72.386 50.091,65.797 C49.923,65.03 49.844,64.235 49.824,63.451 C49.812,62.942 49.599,62.727 49.178,62.517 C43.155,59.519 37.141,56.504 31.125,53.494 C27.653,51.756 24.176,50.025 20.714,48.269 C20.351,48.085 20.128,48.102 19.795,48.328 C15.457,51.266 10.89,51.602 6.355,49.005 C1.75,46.368 -0.382,42.215 0.056,36.928 C0.575,30.667 6.157,25.716 13.094,25.756 Z" id="path-1"></path>
    </defs>
    <g id="Page-1" stroke="none" stroke-width="1" fill="none" fill-rule="evenodd">
        <g id="icon-share">
            <mask id="mask-2" fill="white">
                <use xlink:href="#path-1"></use>
            </mask>
            <g id="Clip-68"></g>
            <polygon id="Fill-67" fill="#00A5DB" mask="url(#mask-2)" points="-0.04 75.68 74.96 75.68 74.96 0.56 -0.04 0.56"></polygon>
        </g>
    </g>
</svg>