<?xml version="1.0" encoding="UTF-8"?>
<svg width="930px" height="154px" viewBox="0 0 930 154" version="1.1" xmlns="http://www.w3.org/2000/svg" xmlns:xlink="http://www.w3.org/1999/xlink">
    <!-- Generator: Sketch 44.1 (41455) - http://www.bohemiancoding.com/sketch -->
    <title>whats-new-top</title>
    <desc>Created with Sketch.</desc>
    <defs></defs>
    <g id="0.0-Home" stroke="none" stroke-width="1" fill="none" fill-rule="evenodd">
        <g id="0.0-Home-hover1" transform="translate(-47.000000, -1431.000000)">
            <g id="whatsnew" transform="translate(47.000000, 1431.000000)">
                <g id="whats-new-top">
                    <path d="M17.2680803,129.404163 L16.1972183,123.930773 L465.561423,36.0533763 C465.916518,35.9845637 466.280909,35.9845637 466.636004,36.0533763 L913.012578,123.930773 L911.934279,129.404163 L466.094995,41.6327754 L17.2680803,129.404163 Z" id="Fill-1" fill="#5F5F5F"></path>
                    <g id="pin" transform="translate(451.000000, 0.000000)">
                        <path d="M16.109388,27.96449 L0.978336956,49.6512956 C0.345194256,50.5588312 0.360885359,52.5909307 1.54764235,53.4244642 C2.73453345,54.2578631 4.64294706,53.5770432 5.27622387,52.6695075 L20.4072749,30.982702 L16.109388,27.96449 Z" id="Fill-4" fill="#A6A9AB"></path>
                        <path d="M33.2957723,36.8352238 C28.826088,43.241524 19.1513832,44.185388 11.6871122,38.9434782 C4.22270714,33.7014339 1.79501191,24.258623 6.2648304,17.8523228 C10.7345148,11.445888 20.4090854,10.5020241 27.8734905,15.7440684 C35.3378956,20.9859781 37.7654567,30.4289236 33.2957723,36.8352238" id="Fill-6" fill="#938B00"></path>
                        <path d="M33.9709055,35.8674907 C29.669934,42.0320057 20.1321576,42.7798312 12.6677525,37.5379214 C5.20334741,32.2960117 2.63899207,23.0491047 6.93996356,16.8845898 C11.240935,10.7200748 20.7787115,9.97224929 28.2431166,15.2141591 C35.7075216,20.4562034 38.271877,29.7029758 33.9709055,35.8674907" id="Fill-8" fill="#E7D225"></path>
                        <path d="M23.2448298,8.25471284 L15.1110718,19.9126104 C14.0357618,21.4537391 15.2512188,25.7395409 18.7330343,28.184707 C22.2148497,30.6298731 26.6448369,30.3085691 27.7200128,28.7674404 L35.8539049,17.1095429 L23.2448298,8.25471284 Z" id="Fill-10" fill="#FFF200"></path>
                        <path d="M41.0250218,16.4294361 C38.2403204,20.4208438 31.8871673,20.7802252 26.8350346,17.2322923 C21.7829018,13.6843594 19.944897,7.57258779 22.7297325,3.58118007 C25.5145679,-0.410093092 31.8675869,-0.769474518 36.9197197,2.77832385 C41.9718524,6.32639132 43.8098572,12.4380284 41.0250218,16.4294361" id="Fill-12" fill="#E7D126"></path>
                        <g id="Group-16" transform="translate(22.090622, 0.060413)" fill="#FFF200">
                            <path d="M19.4536816,15.6249249 C16.9555776,19.2052842 10.8349746,19.2315213 5.78284191,15.6835884 C0.730843284,12.1356555 -1.33984583,6.35702822 1.15825819,2.77666889 C3.6562281,-0.803690429 9.77696517,-0.82992756 14.8290979,2.71800536 C19.8812306,6.26593828 21.9516515,12.0445656 19.4536816,15.6249249" id="Fill-14"></path>
                        </g>
                    </g>
                    <rect id="Rectangle-9" fill="#004C81" x="0" y="104" width="930" height="50" rx="10"></rect>
                </g>
            </g>
        </g>
    </g>
</svg>