<?xml version="1.0" encoding="UTF-8"?>
<svg width="848px" height="372px" viewBox="0 0 848 372" version="1.1" xmlns="http://www.w3.org/2000/svg" xmlns:xlink="http://www.w3.org/1999/xlink">
    <!-- Generator: Sketch 44.1 (41455) - http://www.bohemiancoding.com/sketch -->
    <title>bus-with-cloud-group</title>
    <desc>Created with Sketch.</desc>
    <defs>
        <polygon id="path-1" points="0.0768 44 43.5248 44 43.5248 0.5544 0.0768 0.5544"></polygon>
        <polygon id="path-3" points="0.9743 44 44.4203 44 44.4203 0.5544 0.9743 0.5544 0.9743 44"></polygon>
        <polygon id="path-5" points="290.812 35.1124011 290.812 0.0139986287 0.3795 0.0139986287 0.3795 35.1124011 290.812 35.1124011"></polygon>
    </defs>
    <g id="0.0-Home" stroke="none" stroke-width="1" fill="none" fill-rule="evenodd">
        <g transform="translate(-83.000000, -2179.000000)" id="bus-with-cloud-group">
            <g transform="translate(83.000000, 2167.000000)">
                <g id="Group-10">
                    <g id="bus" transform="translate(0.000000, 208.000000)">
                        <path d="M59.1674,15.7858 C59.1674,15.1668 61.0214,8.7858 61.0214,8.7858 C102.1754,2.8448 102.1924,2.9188 116.2004,1.7858 L122.5854,9.6088 L59.1674,15.7858 Z" id="Fill-1" fill="#000000"></path>
                        <path d="M207.682,6.151 C207.786,5.581 210.587,0 210.587,0 C252.786,2.23 252.778,2.284 266.071,3.599 L268.276,11.175 L207.682,6.151 Z" id="Fill-3" fill="#000000"></path>
                        <path d="M196.5081,7.7567 C151.6181,6.7267 90.4671,11.2557 44.3431,19.4927 C44.3431,19.4927 28.6941,22.5807 26.2221,24.6397 C23.7531,26.6977 22.9281,29.3757 23.9591,33.4937 C24.9891,37.6107 25.6061,39.2577 27.4581,39.8767 L38.7831,96.0877 L6.0441,105.9717 C6.0441,105.9717 1.7211,107.8237 1.5161,114.0007 C1.3081,120.1797 2.3391,142.8277 6.0441,154.1517 L21.8991,160.1217 L27.2441,160.1217 C25.7941,156.3007 24.9891,152.1337 24.9891,147.7687 C24.9891,129.2347 39.3671,114.2067 57.1071,114.2067 C74.8501,114.2067 89.2291,129.2347 89.2291,147.7687 C89.2291,152.1337 88.4251,156.3007 86.9741,160.1217 L199.3781,160.1217 C197.9291,156.3007 197.1231,152.1337 197.1231,147.7687 C197.1231,129.2347 211.5041,114.2067 229.2431,114.2067 C246.9831,114.2067 261.3661,129.2347 261.3661,147.7687 C261.3661,152.1337 260.5601,156.3007 259.1091,160.1217 L293.2821,160.1217 L308.3101,53.2587 C308.3101,53.2587 310.8111,35.0677 311.1931,30.1987 C311.8851,21.3817 309.3051,22.9277 298.4291,19.0797 C298.4291,19.0797 241.3921,8.7857 196.5081,7.7567 Z" id="Fill-5" fill="#FFF200"></path>
                        <path d="M57.1068,114.2067 C39.3678,114.2067 24.9888,129.2347 24.9888,147.7697 C24.9888,152.1337 25.7948,156.3007 27.2448,160.1217 L30.6168,160.1217 C30.2348,158.3317 30.0328,156.4717 30.0328,154.5637 C30.0328,139.7807 42.0198,127.7977 56.8008,127.7977 C71.5858,127.7977 83.5658,139.7807 83.5658,154.5637 C83.5658,156.4717 83.3638,158.3317 82.9868,160.1217 L86.9738,160.1217 C88.4248,156.3007 89.2288,152.1337 89.2288,147.7697 C89.2288,129.2347 74.8498,114.2067 57.1068,114.2067" id="Fill-7" fill="#A7A7A7"></path>
                        <path d="M229.2435,114.2067 C211.5045,114.2067 197.1235,129.2347 197.1235,147.7697 C197.1235,152.1337 197.9295,156.3007 199.3785,160.1217 L203.5725,160.1217 C203.1925,158.3317 202.9885,156.4717 202.9885,154.5637 C202.9885,139.7807 214.9755,127.7977 229.7575,127.7977 C244.5425,127.7977 256.5235,139.7807 256.5235,154.5637 C256.5235,156.4717 256.3235,158.3317 255.9445,160.1217 L259.1085,160.1217 C260.5595,156.3007 261.3655,152.1337 261.3655,147.7697 C261.3655,129.2347 246.9825,114.2067 229.2435,114.2067" id="Fill-9" fill="#A7A7A7"></path>
                        <g id="Group-13" transform="translate(35.000000, 131.567000)">
                            <mask id="mask-2" fill="white">
                                <use xlink:href="#path-1"></use>
                            </mask>
                            <g id="Clip-12"></g>
                            <path d="M43.5248,22.2774 C43.5248,34.2724 33.7958,44.0004 21.8008,44.0004 C9.8018,44.0004 0.0768,34.2724 0.0768,22.2774 C0.0768,10.2804 9.8018,0.5544 21.8008,0.5544 C33.7958,0.5544 43.5248,10.2804 43.5248,22.2774" id="Fill-11" fill="#000000" mask="url(#mask-2)"></path>
                        </g>
                        <path d="M70.598,153.8444 C70.598,161.4624 64.42,167.6374 56.801,167.6374 C49.181,167.6374 43.004,161.4624 43.004,153.8444 C43.004,146.2234 49.181,140.0474 56.801,140.0474 C64.42,140.0474 70.598,146.2234 70.598,153.8444" id="Fill-14" fill="#797979"></path>
                        <path d="M65.4476,153.8444 C65.4476,158.6194 61.5786,162.4914 56.8016,162.4914 C52.0236,162.4914 48.1516,158.6194 48.1516,153.8444 C48.1516,149.0654 52.0236,145.1964 56.8016,145.1964 C61.5786,145.1964 65.4476,149.0654 65.4476,153.8444" id="Fill-16" fill="#DADADA"></path>
                        <path d="M57.8304,142.4176 C57.8304,142.9836 57.3694,143.4446 56.8014,143.4446 C56.2284,143.4446 55.7694,142.9836 55.7694,142.4176 C55.7694,141.8476 56.2284,141.3866 56.8014,141.3866 C57.3694,141.3866 57.8304,141.8476 57.8304,142.4176" id="Fill-18" fill="#000000"></path>
                        <path d="M57.8304,165.1676 C57.8304,165.7376 57.3694,166.1986 56.8014,166.1986 C56.2284,166.1986 55.7694,165.7376 55.7694,165.1676 C55.7694,164.5996 56.2284,164.1406 56.8014,164.1406 C57.3694,164.1406 57.8304,164.5996 57.8304,165.1676" id="Fill-20" fill="#000000"></path>
                        <path d="M68.1752,154.821 C67.6102,154.821 67.1482,154.362 67.1482,153.792 C67.1482,153.223 67.6102,152.762 68.1752,152.762 C68.7452,152.762 69.2072,153.223 69.2072,153.792 C69.2072,154.362 68.7452,154.821 68.1752,154.821" id="Fill-22" fill="#000000"></path>
                        <path d="M45.4252,154.821 C44.8552,154.821 44.3962,154.362 44.3962,153.792 C44.3962,153.223 44.8552,152.762 45.4252,152.762 C45.9912,152.762 46.4542,153.223 46.4542,153.792 C46.4542,154.362 45.9912,154.821 45.4252,154.821" id="Fill-24" fill="#000000"></path>
                        <path d="M65.5717,146.4772 C65.1697,146.8792 64.5187,146.8792 64.1147,146.4772 C63.7137,146.0742 63.7137,145.4222 64.1147,145.0192 C64.5187,144.6192 65.1697,144.6192 65.5717,145.0192 C65.9747,145.4222 65.9747,146.0742 65.5717,146.4772" id="Fill-26" fill="#000000"></path>
                        <path d="M49.4828,162.5641 C49.0818,162.9661 48.4298,162.9661 48.0288,162.5641 C47.6268,162.1611 47.6268,161.5111 48.0288,161.1081 C48.4298,160.7081 49.0818,160.7081 49.4828,161.1081 C49.8848,161.5111 49.8848,162.1611 49.4828,162.5641" id="Fill-28" fill="#000000"></path>
                        <path d="M64.1146,162.5641 C63.7136,162.1611 63.7136,161.5111 64.1146,161.1081 C64.5186,160.7081 65.1696,160.7081 65.5716,161.1081 C65.9746,161.5111 65.9746,162.1611 65.5716,162.5641 C65.1696,162.9661 64.5186,162.9661 64.1146,162.5641" id="Fill-30" fill="#000000"></path>
                        <path d="M48.0287,146.4772 C47.6267,146.0742 47.6267,145.4222 48.0287,145.0192 C48.4297,144.6192 49.0817,144.6192 49.4827,145.0192 C49.8847,145.4222 49.8847,146.0742 49.4827,146.4772 C49.0817,146.8792 48.4297,146.8792 48.0287,146.4772" id="Fill-32" fill="#000000"></path>
                        <g id="Group-36" transform="translate(208.000000, 131.567000)">
                            <mask id="mask-4" fill="white">
                                <use xlink:href="#path-3"></use>
                            </mask>
                            <g id="Clip-35"></g>
                            <path d="M44.4203,22.2774 C44.4203,34.2724 34.6913,44.0004 22.6973,44.0004 C10.6963,44.0004 0.9743,34.2724 0.9743,22.2774 C0.9743,10.2804 10.6963,0.5544 22.6973,0.5544 C34.6913,0.5544 44.4203,10.2804 44.4203,22.2774" id="Fill-34" fill="#000000" mask="url(#mask-4)"></path>
                        </g>
                        <path d="M244.4926,153.8444 C244.4926,161.4624 238.3156,167.6374 230.6976,167.6374 C223.0746,167.6374 216.8996,161.4624 216.8996,153.8444 C216.8996,146.2234 223.0746,140.0474 230.6976,140.0474 C238.3156,140.0474 244.4926,146.2234 244.4926,153.8444" id="Fill-37" fill="#797979"></path>
                        <path d="M239.3451,153.8444 C239.3451,158.6194 235.4731,162.4914 230.6981,162.4914 C225.9161,162.4914 222.0511,158.6194 222.0511,153.8444 C222.0511,149.0654 225.9161,145.1964 230.6981,145.1964 C235.4731,145.1964 239.3451,149.0654 239.3451,153.8444" id="Fill-39" fill="#DADADA"></path>
                        <path d="M231.7269,142.4176 C231.7269,142.9836 231.2629,143.4446 230.6979,143.4446 C230.1289,143.4446 229.6649,142.9836 229.6649,142.4176 C229.6649,141.8476 230.1289,141.3866 230.6979,141.3866 C231.2629,141.3866 231.7269,141.8476 231.7269,142.4176" id="Fill-41" fill="#000000"></path>
                        <path d="M231.7269,165.1676 C231.7269,165.7376 231.2629,166.1986 230.6979,166.1986 C230.1289,166.1986 229.6649,165.7376 229.6649,165.1676 C229.6649,164.5996 230.1289,164.1406 230.6979,164.1406 C231.2629,164.1406 231.7269,164.5996 231.7269,165.1676" id="Fill-43" fill="#000000"></path>
                        <path d="M242.0717,154.821 C241.5037,154.821 241.0447,154.362 241.0447,153.792 C241.0447,153.223 241.5037,152.762 242.0717,152.762 C242.6417,152.762 243.1007,153.223 243.1007,153.792 C243.1007,154.362 242.6417,154.821 242.0717,154.821" id="Fill-45" fill="#000000"></path>
                        <path d="M219.3187,154.821 C218.7517,154.821 218.2917,154.362 218.2917,153.792 C218.2917,153.223 218.7517,152.762 219.3187,152.762 C219.8887,152.762 220.3487,153.223 220.3487,153.792 C220.3487,154.362 219.8887,154.821 219.3187,154.821" id="Fill-47" fill="#000000"></path>
                        <path d="M239.4701,146.4772 C239.0671,146.8792 238.4151,146.8792 238.0121,146.4772 C237.6101,146.0742 237.6121,145.4222 238.0121,145.0192 C238.4151,144.6192 239.0671,144.6192 239.4701,145.0192 C239.8701,145.4222 239.8701,146.0742 239.4701,146.4772" id="Fill-49" fill="#000000"></path>
                        <path d="M223.3802,162.5641 C222.9762,162.9661 222.3232,162.9661 221.9252,162.5641 C221.5222,162.1611 221.5222,161.5111 221.9252,161.1081 C222.3232,160.7081 222.9762,160.7081 223.3802,161.1081 C223.7812,161.5111 223.7812,162.1611 223.3802,162.5641" id="Fill-51" fill="#000000"></path>
                        <path d="M238.0121,162.5641 C237.6101,162.1611 237.6101,161.5111 238.0121,161.1081 C238.4151,160.7081 239.0671,160.7081 239.4701,161.1081 C239.8701,161.5111 239.8701,162.1611 239.4701,162.5641 C239.0671,162.9661 238.4151,162.9661 238.0121,162.5641" id="Fill-53" fill="#000000"></path>
                        <path d="M221.9252,146.4772 C221.5222,146.0742 221.5222,145.4222 221.9252,145.0192 C222.3232,144.6192 222.9762,144.6192 223.3802,145.0192 C223.7812,145.4222 223.7812,146.0742 223.3802,146.4772 C222.9762,146.8792 222.3232,146.8792 221.9252,146.4772" id="Fill-55" fill="#000000"></path>
                        <path d="M18.1215,120.5934 C18.5645,123.7184 17.3645,126.4724 15.4375,126.7444 C13.5175,127.0174 11.6005,124.7034 11.1545,121.5794 C10.7195,118.4564 11.9155,115.7024 13.8405,115.4304 C15.7635,115.1594 17.6805,117.4704 18.1215,120.5934" id="Fill-57" fill="#000000"></path>
                        <path d="M16.7513,120.7877 C17.1053,123.2967 16.1403,125.5067 14.5973,125.7247 C13.0523,125.9447 11.5113,124.0887 11.1543,121.5797 C10.8043,119.0717 11.7663,116.8607 13.3133,116.6417 C14.8553,116.4257 16.3973,118.2817 16.7513,120.7877" id="Fill-59" fill="#E30613"></path>
                        <path d="M120.7211,77.5739 C121.0271,82.1489 117.5601,86.1049 112.9861,86.4089 L95.6491,87.5579 C91.0681,87.8619 87.1141,84.3979 86.8101,79.8209 L84.1501,39.6799 C83.8431,35.1029 87.3081,31.1469 91.8871,30.8439 L109.2261,29.6949 C113.7991,29.3909 117.7591,32.8529 118.0591,37.4319 L120.7211,77.5739 Z" id="Fill-61" fill="#3F3F3F"></path>
                        <path d="M117.806,76.025 C118.084,80.205 115.209,83.799 111.388,84.054 L96.917,85.015 C93.096,85.266 89.772,82.083 89.495,77.901 L87.063,41.227 C86.786,37.047 89.656,33.453 93.479,33.2 L107.955,32.237 C111.775,31.986 115.099,35.17 115.375,39.351 L117.806,76.025 Z" id="Fill-63" fill="#96D6F7"></path>
                        <path d="M160.7865,76.7487 C160.9145,81.3217 157.3055,85.1297 152.7295,85.2547 L135.4005,85.7237 C130.8265,85.8487 127.0155,82.2397 126.8945,77.6677 L125.8075,37.5457 C125.6825,32.9687 129.2905,29.1617 133.8655,29.0377 L151.1945,28.5677 C155.7695,28.4437 159.5795,32.0517 159.7045,36.6267 L160.7865,76.7487 Z" id="Fill-65" fill="#3F3F3F"></path>
                        <path d="M157.9427,75.0905 C158.0557,79.2715 155.0527,82.7405 151.2337,82.8435 L136.7647,83.2365 C132.9477,83.3415 129.7597,80.0375 129.6447,75.8575 L128.6547,39.1985 C128.5417,35.0235 131.5427,31.5515 135.3627,31.4465 L149.8287,31.0555 C153.6507,30.9515 156.8387,34.2565 156.9487,38.4365 L157.9427,75.0905 Z" id="Fill-67" fill="#96D6F7"></path>
                        <path d="M200.8558,75.9254 C200.8008,80.4964 197.0488,84.1584 192.4758,84.1024 L175.1558,83.8924 C170.5828,83.8354 166.9198,80.0844 166.9758,75.5114 L167.4668,35.4084 C167.5208,30.8354 171.2728,27.1774 175.8438,27.2314 L193.1678,27.4424 C197.7408,27.4984 201.4028,31.2514 201.3438,35.8214 L200.8558,75.9254 Z" id="Fill-69" fill="#3F3F3F"></path>
                        <path d="M198.0804,74.1569 C198.0304,78.3349 194.8924,81.6839 191.0754,81.6369 L176.6164,81.4619 C172.7994,81.4149 169.7434,77.9899 169.7944,73.8139 L170.2414,37.1759 C170.2944,32.9979 173.4294,29.6499 177.2474,29.6969 L191.7054,29.8729 C195.5214,29.9189 198.5774,33.3429 198.5284,37.5199 L198.0804,74.1569 Z" id="Fill-71" fill="#96D6F7"></path>
                        <path d="M240.9232,77.9127 C240.6862,82.4827 236.7902,85.9957 232.2212,85.7607 L214.9092,84.8717 C210.3362,84.6337 206.8232,80.7397 207.0602,76.1687 L209.1242,36.0837 C209.3612,31.5147 213.2572,28.0007 217.8262,28.2357 L235.1382,29.1287 C239.7092,29.3617 243.2212,33.2587 242.9872,37.8297 L240.9232,77.9127 Z" id="Fill-73" fill="#3F3F3F"></path>
                        <path d="M238.2162,76.0368 C238.0002,80.2128 234.7332,83.4368 230.9192,83.2408 L216.4662,82.4968 C212.6482,82.3008 209.7302,78.7568 209.9452,74.5808 L211.8312,37.9598 C212.0472,33.7858 215.3122,30.5588 219.1302,30.7558 L233.5832,31.5008 C237.3972,31.6958 240.3182,35.2388 240.1022,39.4178 L238.2162,76.0368 Z" id="Fill-75" fill="#96D6F7"></path>
                        <path d="M280.9906,80.0612 C280.5766,84.6292 276.5346,87.9972 271.9676,87.5802 L254.6616,86.0072 C250.0936,85.5932 246.7276,81.5532 247.1426,76.9862 L250.7816,36.9202 C251.1976,32.3532 255.2376,28.9872 259.8046,29.4012 L277.1086,30.9752 C281.6796,31.3882 285.0446,35.4282 284.6306,39.9972 L280.9906,80.0612 Z" id="Fill-77" fill="#3F3F3F"></path>
                        <path d="M278.3519,78.0758 C277.9749,82.2498 274.5749,85.3498 270.7589,85.0058 L256.3159,83.6938 C252.4989,83.3458 249.7149,79.6808 250.0969,75.5098 L253.4199,38.9058 C253.7999,34.7328 257.1979,31.6318 261.0109,31.9778 L275.4559,33.2898 C279.2729,33.6378 282.0549,37.3008 281.6799,41.4718 L278.3519,78.0758 Z" id="Fill-79" fill="#96D6F7"></path>
                        <path d="M62.6801,100.1979 L62.4641,97.0499 C63.4601,96.9599 163.3491,85.7209 259.0791,92.7939 L258.8921,100.6179 C163.5751,93.5779 63.6761,100.1099 62.6801,100.1979" id="Fill-81" fill="#3F3F3F"></path>
                        <path d="M87.8011,128.8952 L87.6371,125.6042 C87.9721,125.5862 121.7991,123.9652 198.6551,125.0512 L198.6121,131.0912 C121.8591,130.0042 88.1351,128.8772 87.8011,128.8952" id="Fill-83" fill="#3F3F3F"></path>
                        <path d="M291.306,99.2887 C289.983,103.2627 288.327,140.3357 288.327,140.3357 C288.327,140.3357 287.667,145.9627 290.974,146.9557 C292.079,147.2857 293.562,147.6557 295.035,148.0007 L302.476,95.1147 C299,95.4147 292.284,96.3617 291.306,99.2887" id="Fill-85" fill="#000000"></path>
                        <path d="M50.8822,43.1667 C48.5302,34.2287 43.1082,36.6457 43.1082,36.6457 L27.5032,40.0907 L38.1502,92.9357 C41.0912,92.5647 48.7932,91.3117 52.6922,88.0417 C57.5712,83.9447 53.2332,52.1037 50.8822,43.1667" id="Fill-87" fill="#96D6F7"></path>
                        <path d="M54.639,40.9059 C51.96,31.0219 45.784,33.6999 45.784,33.6999 L25.606,38.0219 L25.448,38.0829 C25.952,39.0299 26.559,39.5769 27.458,39.8769 L27.503,40.0909 L43.108,36.6459 C43.108,36.6459 48.531,34.2289 50.882,43.1669 C53.233,52.1029 57.572,83.9449 52.692,88.0419 C48.793,91.3119 41.091,92.5649 38.15,92.9349 L38.784,96.0879 C38.784,96.0879 51.137,95.0579 56.697,90.5299 C62.256,85.9979 57.315,50.7899 54.639,40.9059" id="Fill-89" fill="#3F3F3F"></path>
                        <path d="M292.5248,103.0895 C291.4268,106.3815 290.0548,137.1325 290.0548,137.1325 C290.0548,137.1325 289.5038,141.7985 292.2528,142.6215 C293.1688,142.8985 294.3928,143.2035 295.6208,143.4875 L301.7898,99.6275 C298.9118,99.8745 293.3348,100.6605 292.5248,103.0895" id="Fill-91" fill="#E30613"></path>
                        <path d="M290.8295,122.1696 C290.3745,129.9576 290.0555,137.1326 290.0555,137.1326 C290.0555,137.1326 289.5045,141.7986 292.2525,142.6216 C293.1685,142.8986 294.3925,143.2036 295.6205,143.4876 L298.5515,122.6596 C295.9785,122.4866 293.4055,122.3136 290.8295,122.1696" id="Fill-93" fill="#A40009"></path>
                        <path d="M11.931,133.026 C10.488,122.841 6.07,114.814 1.539,113.53 C1.53,113.685 1.522,113.84 1.516,114.001 C1.493,114.738 1.486,115.711 1.497,116.871 C4.852,118.404 8.096,124.973 9.259,133.172 C10.551,142.31 8.794,150.224 5.309,151.62 C5.538,152.513 5.785,153.362 6.044,154.152 L7.352,154.646 C11.353,152.163 13.373,143.217 11.931,133.026" id="Fill-95" fill="#000000"></path>
                        <path d="M9.2592,133.1725 C8.0962,124.9735 4.8522,118.4035 1.4972,116.8705 C1.5862,124.7435 2.6002,141.2635 5.3092,151.6195 C8.7942,150.2245 10.5512,142.3105 9.2592,133.1725" id="Fill-97" fill="#96D6F7"></path>
                        <g id="Group-101" transform="translate(22.000000, 2.567000)">
                            <mask id="mask-6" fill="white">
                                <use xlink:href="#path-5"></use>
                            </mask>
                            <g id="Clip-100"></g>
                            <path d="M3.9515,20.9073 C3.9515,20.9073 0.3795,22.0043 0.3795,24.7503 C0.3795,27.4943 1.7535,33.8083 1.7535,33.8083 C1.7535,33.8083 2.5745,35.7293 6.9685,34.9083 C6.9685,34.9083 67.3655,18.9823 157.1405,17.3383 C157.1405,17.3383 242.7965,20.3583 283.1515,29.9663 C283.1515,29.9663 288.6415,31.8873 290.2935,29.4173 L290.5655,18.7103 C290.5655,18.7103 293.0375,12.6703 282.3305,11.0233 C282.3305,11.0233 124.7215,-19.4027 3.9515,20.9073" id="Fill-99" fill="#D8CD04" mask="url(#mask-6)"></path>
                        </g>
                        <path d="M27.2445,160.1217 L26.2225,149.8277 C26.2225,149.8277 26.0865,146.3287 22.6555,146.4657 L3.0245,148.1107 C3.0245,148.1107 -0.1315,148.2517 0.0045,151.1317 C0.1425,154.0157 1.1035,157.5847 1.1035,157.5847 C1.1035,157.5847 1.5155,160.0557 3.7115,160.0557 L27.2445,160.1217 Z" id="Fill-120" fill="#000000"></path>
                        <path d="M256.6273,160.1217 L258.2753,144.8877 C258.2753,144.8877 272.6753,146.3287 276.1083,146.4657 L295.7373,148.1107 C295.7373,148.1107 298.8963,148.2517 298.7553,151.1317 C298.6193,154.0157 297.6593,157.5847 297.6593,157.5847 C297.6593,157.5847 297.2473,160.0557 295.0523,160.0557 L256.6273,160.1217 Z" id="Fill-122" fill="#000000"></path>
                        <path d="M57.1068,114.2067 C39.3678,114.2067 24.9888,129.2347 24.9888,147.7697 C24.9888,152.1337 25.7948,156.3007 27.2448,160.1217 L30.6168,160.1217 C30.2348,158.3317 30.0328,156.4717 30.0328,154.5637 C30.0328,139.7807 42.0198,127.7977 56.8008,127.7977 C71.5858,127.7977 83.5658,139.7807 83.5658,154.5637 C83.5658,156.4717 83.3638,158.3317 82.9868,160.1217 L86.9738,160.1217 C88.4248,156.3007 89.2288,152.1337 89.2288,147.7697 C89.2288,129.2347 74.8498,114.2067 57.1068,114.2067" id="Fill-124" fill="#D8CD04"></path>
                        <path d="M229.2435,114.2067 C211.5045,114.2067 197.1235,129.2347 197.1235,147.7697 C197.1235,152.1337 197.9295,156.3007 199.3785,160.1217 L203.5725,160.1217 C203.1925,158.3317 202.9885,156.4717 202.9885,154.5637 C202.9885,139.7807 214.9755,127.7977 229.7575,127.7977 C244.5425,127.7977 256.5235,139.7807 256.5235,154.5637 C256.5235,156.4717 256.3235,158.3317 255.9445,160.1217 L259.1085,160.1217 C260.5595,156.3007 261.3655,152.1337 261.3655,147.7697 C261.3655,129.2347 246.9825,114.2067 229.2435,114.2067" id="Fill-126" fill="#D8CD04"></path>
                        <path d="M107.9554,32.237 L93.4784,33.2 C89.6554,33.453 86.7864,37.048 87.0624,41.227 L88.4194,61.726 C97.0874,60.928 106.5344,60.2 116.7164,59.609 L115.3754,39.351 C115.0994,35.17 111.7744,31.986 107.9554,32.237" id="Fill-128" fill="#00ABE4"></path>
                        <path d="M149.8285,31.0553 L135.3625,31.4473 C131.5425,31.5513 128.5415,35.0233 128.6545,39.1993 L129.1895,58.9703 C138.1315,58.5733 147.5735,58.2873 157.4835,58.1473 L156.9485,38.4363 C156.8385,34.2563 153.6505,30.9513 149.8285,31.0553" id="Fill-130" fill="#00ABE4"></path>
                        <path d="M191.7054,29.8727 L177.2474,29.6967 C173.4294,29.6497 170.2944,32.9977 170.2414,37.1757 L169.9904,58.0497 C179.0624,58.0357 188.4944,58.1467 198.2714,58.4077 L198.5284,37.5197 C198.5774,33.3427 195.5214,29.9187 191.7054,29.8727" id="Fill-132" fill="#00ABE4"></path>
                        <path d="M233.5834,31.5006 L219.1304,30.7556 C215.3124,30.5596 212.0474,33.7856 211.8314,37.9596 L210.7594,58.8166 C219.9084,59.1726 229.3334,59.6586 239.0274,60.2956 L240.1024,39.4176 C240.3174,35.2386 237.3964,31.6956 233.5834,31.5006" id="Fill-134" fill="#00ABE4"></path>
                        <path d="M281.6801,41.4723 C282.0551,37.3003 279.2731,33.6373 275.4561,33.2893 L261.0111,31.9783 C257.1981,31.6313 253.8001,34.7333 253.4201,38.9063 L251.3931,61.1813 C260.5951,61.8913 270.0171,62.7403 279.6561,63.7383 L281.6801,41.4723 Z" id="Fill-136" fill="#00ABE4"></path>
                        <path d="M43.1078,36.6461 L27.5038,40.0901 L33.3318,69.0231 C38.5458,68.0701 45.5908,66.8881 54.3488,65.6571 C53.5268,56.6061 51.9848,47.3631 50.8818,43.1671 C48.5308,34.2291 43.1078,36.6461 43.1078,36.6461" id="Fill-138" fill="#00ABE4"></path>
                        <path d="M47.7758,90.0495 L41.7338,96.5005 C41.7338,96.5005 40.9108,97.1855 42.1478,98.8315 C43.3818,100.4825 50.9298,97.0495 50.9298,97.0495 L47.7758,90.0495 Z" id="Fill-140" fill="#D8CD04"></path>
                        <path d="M54.3646,94.1647 C54.0366,86.3167 52.0526,83.0947 50.5006,81.7707 C46.1936,84.2157 43.7176,94.2737 49.0116,98.1487 C50.6756,99.3647 52.2186,99.7017 53.5166,99.2727 C54.0946,98.0947 54.4586,96.4557 54.3646,94.1647" id="Fill-142" fill="#FFF200"></path>
                        <path d="M56.8344,84.6959 C56.8344,84.6959 56.1474,79.8909 51.3454,81.3999 C51.0554,81.4909 50.7764,81.6179 50.5004,81.7709 C52.0534,83.0939 54.0364,86.3169 54.3644,94.1649 C54.4584,96.4559 54.0954,98.0939 53.5174,99.2729 C56.6014,98.2589 58.2844,92.9099 56.8344,84.6959" id="Fill-144" fill="#D8CD04"></path>
                        <text id="DELTA" font-family="OpenSans-Bold, Open Sans" font-size="20" font-weight="bold" fill="#00ABE4">
                            <tspan x="120" y="116">DELTA</tspan>
                        </text>
                    </g>
                    <g id="big-cloud" transform="translate(322.000000, 0.000000)" fill="#FFFFFF">
                        <g id="Group-14">
                            <path d="M515.301252,194.287895 C509.710815,180.05118 501.573122,168.330297 490.865632,159.125247 C484.937064,155.394412 479.008496,151.663577 473.079927,147.930061 C467.805079,145.650255 462.507689,144.121444 457.142673,143.255118 C459.081293,136.345966 460.366191,129.160556 460.884659,121.841039 C462.575316,98.0237761 456.218448,73.9436653 443.459628,55.4933331 C438.567995,50.048621 433.676363,44.6065911 428.784731,39.161879 C417.175557,29.398947 404.281484,23.7530756 390.102513,22.2323112 C383.430056,22.6051265 376.735057,22.9779418 370.040057,23.350757 C356.740227,26.2581796 344.838007,32.7998805 334.355937,42.9704953 C323.964036,53.1411102 316.029222,66.4873601 311.272842,81.3168246 C299.122659,63.461924 281.382038,51.1295171 261.139246,49.7830907 C239.88206,48.3669292 219.729436,57.4003234 205.077081,73.4877042 C204.829118,73.1336638 204.626239,72.7688949 204.378276,72.4202187 L188.779153,55.0615111 C176.426091,44.6816906 162.720503,38.6844609 147.66239,37.06714 C140.561634,37.4640944 133.438335,37.8583667 126.337578,38.2526389 C112.203691,41.3451281 99.5350394,48.2971939 88.3992495,59.1088365 C71.3799754,75.7728739 60.5372326,100.429641 58.6887816,126.572306 C57.6743878,140.704418 59.3650442,154.922358 63.3775353,168.139866 C53.8873176,170.092453 44.9381099,174.719117 37.2061748,182.285389 C25.5293748,193.703192 18.1130289,210.600574 16.8506722,228.514481 C14.3259587,264.20819 37.6795586,299.030208 68.4044202,301.076669 C83.2145699,302.061008 97.4611676,297.281463 109.025257,285.968263 C111.211839,283.8172 113.263169,281.470341 115.156704,278.959873 C120.499178,291.083074 127.87044,301.221503 137.293031,309.337611 L154.627895,320.237764 C164.185739,324.384328 173.923919,326.100887 183.819895,325.449131 C193.17486,324.985123 202.214236,322.388827 210.915481,317.64415 C220.563493,312.34159 228.904064,304.625119 235.599063,295.18136 C235.937195,296.106693 236.230242,297.042754 236.590915,297.957358 C242.226436,312.376458 250.476839,324.250221 261.319582,333.573285 C272.703335,343.156515 285.349445,348.692419 299.257911,350.186362 C300.0018,350.207819 300.700604,350.282919 301.444493,350.419707 C314.609071,351.66153 327.210096,349.011592 339.225027,342.467209 C351.194874,335.826269 361.068308,326.133073 368.800243,313.387619 C374.976774,302.980977 379.101976,291.670459 381.243474,279.485569 C386.450695,289.570356 393.303489,298.450869 401.486266,305.402935 C412.77985,314.900337 425.313249,320.390645 439.086463,321.871177 C452.318667,323.118365 464.942235,320.46038 477.00225,313.891858 C483.426744,310.598209 489.265144,305.191047 494.900665,300.67435 C505.315109,290.391086 512.889249,277.69391 517.600545,262.582822 C524.453339,240.44457 523.596739,215.691246 515.301252,194.287895 L241.820085,92.7587903" id="Fill-223" transform="translate(269.428417, 186.474599) rotate(-5.000000) translate(-269.428417, -186.474599) "></path>
                            <polyline id="Path-2" points="26.4838187 277.492055 0.451233988 305.926348 41.0104012 301.497669"></polyline>
                        </g>
                    </g>
                </g>
            </g>
        </g>
    </g>
</svg>