<?xml version="1.0" encoding="UTF-8"?>
<svg width="261px" height="38px" viewBox="0 0 261 38" version="1.1" xmlns="http://www.w3.org/2000/svg" xmlns:xlink="http://www.w3.org/1999/xlink">
    <!-- Generator: Sketch 44.1 (41455) - http://www.bohemiancoding.com/sketch -->
    <title>Filter-header</title>
    <desc>Created with Sketch.</desc>
    <defs></defs>
    <g id="1.0-Activities-Calendar" stroke="none" stroke-width="1" fill="none" fill-rule="evenodd">
        <g id="1.0-Activities_Calendar" transform="translate(-73.000000, -316.000000)">
            <g id="FILTER" transform="translate(50.000000, 291.000000)">
                <g id="Filter-header" transform="translate(22.000000, 19.000000)">
                    <g id="filter-icon" transform="translate(226.000000, 7.000000)" fill="#00A3DA" stroke="#00A3DA">
                        <g id="Group">
                            <path d="M18.5582265,17.4304501 L18.5582265,1.00517333 C18.5582265,0.446743703 18.1095085,0 17.5486111,0 C16.9877137,0 16.5389957,0.446743703 16.5389957,1.00517333 L16.5389957,17.4304501 C14.1981838,17.899531 12.4257479,19.9619978 12.4257479,22.4339796 C12.4257479,24.9059614 14.1981838,26.9684282 16.5389957,27.4375091 L16.5389957,34.7492143 C16.5389957,35.307644 16.9877137,35.7543877 17.5486111,35.7543877 C18.1095085,35.7543877 18.5582265,35.307644 18.5582265,34.7492143 L18.5582265,27.4375091 C20.8990385,26.9684282 22.6714744,24.9059614 22.6714744,22.4339796 C22.6714744,19.9694435 20.9065171,17.899531 18.5582265,17.4304501 Z M17.5486111,25.5239569 C15.8360043,25.5239569 14.4449786,24.1390514 14.4449786,22.4339796 C14.4449786,20.7289078 15.8360043,19.3440023 17.5486111,19.3440023 C19.2612179,19.3440023 20.6522436,20.7289078 20.6522436,22.4339796 C20.6522436,24.1390514 19.2612179,25.5239569 17.5486111,25.5239569 Z" id="Shape"></path>
                            <path d="M6.19604701,9.00188561 L6.19604701,1.00517333 C6.19604701,0.446743703 5.74732906,0 5.18643162,0 C4.62553419,0 4.17681624,0.446743703 4.17681624,1.00517333 L4.17681624,9.00188561 C1.83600427,9.47096649 0.0635683761,11.5334333 0.0635683761,14.0054151 C0.0635683761,16.4773969 1.83600427,18.5398637 4.17681624,19.0089445 L4.17681624,34.7492143 C4.17681624,35.307644 4.62553419,35.7543877 5.18643162,35.7543877 C5.74732906,35.7543877 6.19604701,35.307644 6.19604701,34.7492143 L6.19604701,19.0014988 C8.53685897,18.5324179 10.3092949,16.4699512 10.3092949,13.9979693 C10.3092949,11.5259875 8.53685897,9.47096649 6.19604701,9.00188561 Z M5.18643162,17.0953924 C3.47382479,17.0953924 2.08279915,15.7104869 2.08279915,14.0054151 C2.08279915,12.3003433 3.47382479,10.9154378 5.18643162,10.9154378 C6.89903846,10.9154378 8.2900641,12.3003433 8.2900641,14.0054151 C8.2900641,15.7104869 6.89155983,17.0953924 5.18643162,17.0953924 Z" id="Shape"></path>
                            <path d="M30.8456197,9.00188561 L30.8456197,1.00517333 C30.8456197,0.446743703 30.3969017,0 29.8360043,0 C29.2751068,0 28.8263889,0.446743703 28.8263889,1.00517333 L28.8263889,9.00188561 C26.4855769,9.47096649 24.713141,11.5334333 24.713141,14.0054151 C24.713141,16.4773969 26.4855769,18.5398637 28.8263889,19.0089445 L28.8263889,34.7566601 C28.8263889,35.3150897 29.2751068,35.7618334 29.8360043,35.7618334 C30.3969017,35.7618334 30.8456197,35.3150897 30.8456197,34.7566601 L30.8456197,19.0014988 C33.1864316,18.5324179 34.9588675,16.4699512 34.9588675,13.9979693 C34.9588675,11.5259875 33.1939103,9.47096649 30.8456197,9.00188561 Z M29.8360043,17.0953924 C28.1233974,17.0953924 26.7323718,15.7104869 26.7323718,14.0054151 C26.7323718,12.3003433 28.1233974,10.9154378 29.8360043,10.9154378 C31.5486111,10.9154378 32.9396368,12.3003433 32.9396368,14.0054151 C32.9396368,15.7104869 31.5486111,17.0953924 29.8360043,17.0953924 Z" id="Shape"></path>
                        </g>
                    </g>
                    <text id="Filters" font-family="BreeSerif-Regular, Bree Serif" font-size="30" font-weight="normal" fill="#004C81">
                        <tspan x="0" y="32.7885364">Filters</tspan>
                    </text>
                </g>
            </g>
        </g>
    </g>
</svg>