<?xml version="1.0" encoding="UTF-8"?>
<svg width="1024px" height="374px" viewBox="0 0 1024 374" version="1.1" xmlns="http://www.w3.org/2000/svg" xmlns:xlink="http://www.w3.org/1999/xlink">
    <!-- Generator: Sketch 44.1 (41455) - http://www.bohemiancoding.com/sketch -->
    <title>green-background</title>
    <desc>Created with Sketch.</desc>
    <defs>
        <polygon id="path-1" points="1024 0.29988871 1024 372.549889 0 372.549889 0 0.29988871"></polygon>
    </defs>
    <g id="0.0-Home" stroke="none" stroke-width="1" fill="none" fill-rule="evenodd">
        <g transform="translate(0.000000, -544.000000)" id="green-background">
            <g transform="translate(0.000000, 544.500000)">
                <mask id="mask-2" fill="white">
                    <use xlink:href="#path-1"></use>
                </mask>
                <g id="Clip-4"></g>
                <path d="M0.2304,118.775046 C0.2304,118.775046 250.001067,247.14414 472.050347,162.372412 C694.098773,77.6006841 878.3104,34.0033175 1024.2304,34.0033175 L1024.2304,377.549133 L0.2304,377.549133 L0.2304,118.775046" id="Fill-3" fill="#38AB4F" mask="url(#mask-2)"></path>
                <path d="M718.350507,173.764599 C664.180907,173.769378 607.51616,165.088137 552.510293,142.008655 C575.881387,148.068557 626.55744,158.618427 696.006827,158.618427 C781.856427,158.618427 896.401067,142.509266 1023.65867,81.8839551 L1023.65867,93.9284893 C1016.6528,97.835406 878.523733,173.752651 718.350507,173.764599" id="Fill-5" fill="#1AA247" mask="url(#mask-2)"></path>
                <path d="M552.111787,141.840191 C330.064213,48.3716905 145.852587,0.29988871 -0.0674133333,0.29988871 L-0.0674133333,449.236872 L1023.93173,449.236872 L1023.93173,93.7719737 C1023.93173,93.7719737 774.16192,235.313471 552.111787,141.840191 Z" id="Fill-6" fill="#58B361" mask="url(#mask-2)"></path>
            </g>
        </g>
    </g>
</svg>