<?xml version="1.0" encoding="UTF-8"?>
<svg width="250px" height="174px" viewBox="0 0 250 174" version="1.1" xmlns="http://www.w3.org/2000/svg" xmlns:xlink="http://www.w3.org/1999/xlink">
    <!-- Generator: Sketch 44.1 (41455) - http://www.bohemiancoding.com/sketch -->
    <title>handshake</title>
    <desc>Created with Sketch.</desc>
    <defs>
        <path d="M0.992882562,0.653024911 C0.659252669,0.385231317 0.493772242,0.329181495 0.493772242,0.329181495 C0.493772242,0.329181495 0.694839858,0.461743772 0.992882562,0.653024911 Z" id="path-1"></path>
        <polygon id="path-3" points="0 0.260186833 0 87.1979093 86.9366548 87.1979093 86.9366548 0.260186833 1.20574085e-20 0.260186833"></polygon>
    </defs>
    <g id="7.0-About-Us" stroke="none" stroke-width="1" fill="none" fill-rule="evenodd">
        <g id="7.0-About_Us" transform="translate(-707.000000, -1713.000000)">
            <g id="handshake" transform="translate(707.000000, 1713.000000)">
                <g id="Group-21" transform="translate(25.800712, 0.629893)">
                    <path d="M150.953114,25.8367438 C150.953114,25.8367438 131.365036,45.422153 126.081228,50.7068505 C120.79653,55.9924377 91.3846085,47.7433274 86.1363879,52.991548 L33.6399466,112.716637 C28.849911,118.425712 28.6390569,124.415036 30.7849644,128.008452 C30.7849644,128.008452 34.8961744,135.102758 38.2947509,136.636566 C46.8089858,140.484431 55.8161032,133.583185 55.8161032,133.583185 L95.6630783,162.733541 C100.913968,166.869662 107.994039,167.2629 114.672865,162.733541 C121.35258,158.205071 144.687989,136.769128 153.835676,123.415925 C163.182651,109.773577 167.688879,101.185498 172.123932,96.7513345 C176.559875,92.3153915 196.995819,71.877669 196.995819,71.877669 L150.953114,25.8367438 Z" id="Fill-1" fill="#ECC19C"></path>
                    <path d="M58.4202847,127.189858 L53.8339858,132.161388 C49.0439502,137.873132 47.6969751,145.034164 52.9434164,150.283274 C52.9434164,150.283274 55.7441281,153.083986 58.21121,155.552847 C64.8170819,162.158719 78.966548,152.625801 78.966548,152.625801 L87.1951957,158.646263 C84.5982206,144.272598 70.2779359,136.320641 58.4202847,127.189858" id="Fill-3" fill="#ECC19C"></path>
                    <path d="M80.1935943,142.628915 L76.147331,148.051512 C71.9774021,154.229448 71.3786477,161.491904 77.1446619,166.16806 C77.1446619,166.16806 80.2202847,168.661833 82.9302491,170.859342 C90.1882562,176.746352 103.269217,165.793505 103.269217,165.793505 C103.269217,165.793505 92.9346975,150.479448 80.1935943,142.628915" id="Fill-5" fill="#ECC19C"></path>
                    <path d="M139.300712,84.3291815 C139.300712,84.3291815 153.830071,107.563167 162.456406,110.314057 L169.365658,99.8843416 C169.365658,99.8843416 161.092527,95.63879 139.300712,84.3291815" id="Fill-7"></path>
                    <path d="M197.776868,70.7286477 C199.954804,72.905694 199.954804,76.4724199 197.776868,78.6494662 L181.336477,95.0871886 C179.158541,97.2669039 175.592705,97.2669039 173.417438,95.0871886 L128.367616,50.0427046 C126.190569,47.8629893 126.190569,44.2980427 128.367616,42.1209964 L144.810676,25.6814947 C146.985053,23.5044484 150.551779,23.5044484 152.726157,25.6814947 L197.776868,70.7286477 Z" id="Fill-9" fill="#F2F2F2"></path>
                    <path d="M221.677402,55.2617438 C223.854448,57.43879 223.854448,61.002847 221.677402,63.1825623 L199.29395,85.5651246 C197.116904,87.7421708 193.551957,87.7421708 191.374021,85.5651246 L138.006584,32.1985765 C135.827758,30.0197509 135.827758,26.455694 138.006584,24.2786477 L160.388256,1.89697509 C162.568861,-0.285409253 166.132028,-0.285409253 168.309964,1.89697509 L221.677402,55.2617438 Z" id="Fill-11" fill="#00A3DA"></path>
                    <path d="M46.5564947,25.8367438 C46.5564947,25.8367438 66.144573,45.422153 71.4283808,50.7068505 C76.7121886,55.9924377 106.125,47.7433274 111.37411,52.991548 L164.850979,113.001335 C169.641014,118.711299 170.987989,125.871441 165.741548,131.121441 C165.741548,131.121441 162.939947,133.919484 160.471085,136.389235 C153.864324,142.995996 145.245107,137.135676 145.245107,137.135676 C145.245107,137.135676 147.660587,139.214858 147.660587,141.865214 C147.660587,144.165036 134.854537,158.73532 130.062722,156.187278 C128.713968,155.473754 126.828737,154.244217 126.828737,154.244217 C126.828737,154.244217 127.515569,154.455071 128.923043,156.288701 C129.212189,156.670374 129.43194,157.90258 128.684609,158.775356 C126.027135,161.866103 119.989769,166.420374 114.781584,167.210409 C113.379448,167.657028 111.962189,167.397242 111.962189,167.397242 C110.033363,168.914146 103.37589,170.06895 99.4274911,169.729093 C95.4764235,169.388345 85.9604093,166.701512 81.7335409,163.836744 C75.0547153,159.307384 52.8216192,136.769128 43.6730427,123.415925 C34.3260676,109.773577 29.8207295,101.185498 25.3856762,96.7513345 C20.9497331,92.3153915 0.512010676,71.877669 0.512010676,71.877669 L46.5564947,25.8367438 Z" id="Fill-13" fill="#F0D0B4"></path>
                    <path d="M145.244929,137.13532 C145.244929,137.13532 140.468238,130.428915 136.732473,128.560587 C136.732473,128.560587 140.534075,135.133541 145.244929,137.13532" id="Fill-15" fill="#F0D0B4"></path>
                    <path d="M127.479982,154.900267 C127.479982,154.900267 122.703292,148.192972 118.970196,146.324644 C118.970196,146.324644 122.770018,152.900267 127.479982,154.900267" id="Fill-17" fill="#F0D0B4"></path>
                    <path d="M112.274644,167.111655 C112.274644,167.111655 107.495285,160.406139 103.763968,158.538701 C103.763968,158.538701 107.56379,165.112544 112.274644,167.111655" id="Fill-19" fill="#F0D0B4"></path>
                </g>
                <g id="Group-24" transform="translate(152.135231, 154.544484)">
                    <mask id="mask-2" fill="white">
                        <use xlink:href="#path-1"></use>
                    </mask>
                    <g id="Clip-23"></g>
                    <path d="M0.992882562,0.653024911 C0.659252669,0.385231317 0.493772242,0.329181495 0.493772242,0.329181495 L0.493772242,0.329181495 C0.493772242,0.329181495 0.694839858,0.461743772 0.992882562,0.653024911" id="Fill-22" mask="url(#mask-2)"></path>
                </g>
                <g id="Group-36" transform="translate(0.000000, 0.629893)">
                    <path d="M139.945907,54.0679715 C139.945907,54.0679715 123.169217,51.624911 115.103381,52.6560498 C107.037544,53.6862989 100.877402,72.0350534 96.955694,81.2779359 C93.0357651,90.5190391 103.38452,97.4469751 116.278648,91.3580071 C126.358719,86.5991103 133.005516,74.96121 133.005516,74.96121 C133.005516,74.96121 149.406762,85.2192171 165.100712,84.3286477 L139.945907,54.0679715 Z" id="Fill-25" fill="#DFB28B"></path>
                    <path d="M139.523665,52.438968 C139.523665,52.438968 121.542349,49.9967972 113.474733,51.0279359 C105.408007,52.0581851 99.2487544,70.4078292 95.3270463,79.647153 C91.4071174,88.8909253 101.755872,95.8206406 114.648221,89.7290036 C124.730961,84.9709964 131.375089,71.4941281 131.375089,71.4941281 C131.375089,71.4941281 149.406228,85.2192171 165.101068,84.3286477 L139.523665,52.438968 Z" id="Fill-27" fill="#ECC19C"></path>
                    <path d="M94.7,81.6115658 C94.7,81.6115658 100.517616,81.0902135 106.250712,84.9994662 C111.983808,88.9069395 116.934875,78.3535587 116.608363,76.075089 C116.28274,73.7921708 107.803203,67.1631673 99.0772242,70.4781139 L94.7,81.6115658 Z" id="Fill-29" fill="#F9EDE1"></path>
                    <path d="M25.5338968,70.7286477 C23.3541815,72.905694 23.3541815,76.4724199 25.5338968,78.6494662 L41.9742883,95.0871886 C44.1513345,97.2669039 47.7171708,97.2669039 49.8924377,95.0871886 L94.9422598,50.0427046 C97.119306,47.8629893 97.119306,44.2980427 94.9422598,42.1209964 L78.500089,25.6814947 C76.3248221,23.5044484 72.7589858,23.5044484 70.5837189,25.6814947 L25.5338968,70.7286477 Z" id="Fill-31" fill="#F2F2F2"></path>
                    <g id="Group-35">
                        <mask id="mask-4" fill="white">
                            <use xlink:href="#path-3"></use>
                        </mask>
                        <g id="Clip-34"></g>
                        <path d="M1.63327402,55.2617438 C-0.544661922,57.43879 -0.544661922,61.002847 1.63327402,63.1825623 L24.016726,85.5651246 C26.1937722,87.7421708 29.7578292,87.7421708 31.9357651,85.5651246 L85.3032028,32.1985765 C87.4811388,30.0197509 87.4811388,26.455694 85.3032028,24.2786477 L62.9215302,1.89697509 C60.7418149,-0.285409253 57.177758,-0.285409253 55.0007117,1.89697509 L1.63327402,55.2617438 Z" id="Fill-33" fill="#00A3DA" mask="url(#mask-4)"></path>
                    </g>
                </g>
            </g>
        </g>
    </g>
</svg>