<?xml version="1.0" encoding="UTF-8"?>
<svg width="66px" height="67px" viewBox="0 0 66 67" version="1.1" xmlns="http://www.w3.org/2000/svg" xmlns:xlink="http://www.w3.org/1999/xlink">
    <!-- Generator: Sketch 44.1 (41455) - http://www.bohemiancoding.com/sketch -->
    <title>icon-tag</title>
    <desc>Created with Sketch.</desc>
    <defs>
        <path d="M65.866,26.555 C65.962,27.599 65.591,28.623 64.849,29.365 L29.124,65.061 C27.751,66.433 25.518,66.433 24.145,65.061 L1.187,42.122 C-0.186,40.75 -0.186,38.518 1.187,37.146 L36.912,1.449 C37.654,0.708 38.679,0.338 39.724,0.434 L60.753,2.361 C61.571,2.436 62.341,2.796 62.921,3.376 C63.501,3.957 63.863,4.726 63.938,5.543 L65.866,26.555 Z M26.656,55.606 L56.163,26.122 L40.157,10.129 L10.65,39.612 L26.656,55.606 Z M58.38,12.652 C59.69,11.344 59.689,9.222 58.38,7.914 C57.071,6.605 54.947,6.605 53.638,7.914 C52.328,9.222 52.328,11.344 53.637,12.652 C54.947,13.961 57.071,13.961 58.38,12.652 Z" id="path-1"></path>
    </defs>
    <g id="Page-1" stroke="none" stroke-width="1" fill="none" fill-rule="evenodd">
        <g id="icon-tag">
            <mask id="mask-2" fill="white">
                <use xlink:href="#path-1"></use>
            </mask>
            <g id="Clip-11"></g>
            <polygon id="Fill-10" fill="#00A5DB" mask="url(#mask-2)" points="0.08 66.16 65.96 66.16 65.96 0.4 0.08 0.4"></polygon>
        </g>
    </g>
</svg>