<?xml version="1.0" encoding="UTF-8"?>
<svg width="52px" height="69px" viewBox="0 0 52 69" version="1.1" xmlns="http://www.w3.org/2000/svg" xmlns:xlink="http://www.w3.org/1999/xlink">
    <!-- Generator: Sketch 44.1 (41455) - http://www.bohemiancoding.com/sketch -->
    <title>icon-baby</title>
    <desc>Created with Sketch.</desc>
    <defs>
        <path d="M37.047,20.936 L15.062,20.936 L15.062,20.306 C15.062,17.679 15.054,15.052 15.07,12.425 C15.072,12.054 14.95,11.87 14.615,11.715 C10.645,9.882 6.682,8.034 2.718,6.191 C1.243,5.505 0.512,3.808 1.055,2.321 C1.639,0.718 3.285,-0.168 4.902,0.353 C8.579,1.538 12.24,2.775 15.906,3.992 C16.67,4.245 17.446,4.467 18.191,4.767 C19.676,5.366 21.201,5.561 22.803,5.522 C25.606,5.455 28.411,5.508 31.216,5.498 C31.506,5.497 31.81,5.449 32.086,5.357 C37.031,3.719 41.973,2.069 46.917,0.427 C48.347,-0.048 49.718,0.331 50.562,1.417 C51.366,2.452 51.48,3.922 50.725,4.998 C50.398,5.464 49.922,5.911 49.413,6.154 C45.498,8.021 41.561,9.842 37.621,11.655 C37.196,11.851 37.029,12.063 37.034,12.548 C37.062,15.122 37.047,17.697 37.047,20.271 L37.047,20.936 Z" id="path-1"></path>
        <path d="M12.081,0.77 C18.327,0.778 23.41,5.872 23.406,12.12 C23.402,18.356 18.297,23.453 12.054,23.452 C5.789,23.452 0.687,18.334 0.703,12.067 C0.719,5.827 5.82,0.763 12.081,0.77 Z" id="path-3"></path>
        <path d="M16.841,4.463 C14.75,5.902 12.74,7.286 10.684,8.701 C11.569,9.687 12.408,10.623 13.248,11.558 C14.196,12.613 15.161,13.652 16.089,14.723 C17.273,16.089 17.574,17.64 16.848,19.311 C16.128,20.966 14.781,21.808 13.01,21.873 C11.663,21.923 10.54,21.336 9.635,20.329 C6.957,17.345 4.266,14.373 1.591,11.387 C-0.064,9.539 0.015,7.021 1.804,5.307 C3.548,3.635 5.333,2.007 7.089,0.348 C7.308,0.141 7.483,0.13 7.737,0.248 C10.676,1.607 13.617,2.958 16.557,4.311 C16.617,4.339 16.674,4.373 16.841,4.463 Z" id="path-5"></path>
        <path d="M7.41,8.689 C5.362,7.279 3.352,5.896 1.254,4.453 C2.371,3.933 3.377,3.459 4.388,2.996 C6.376,2.084 8.369,1.184 10.354,0.265 C10.628,0.138 10.817,0.132 11.05,0.354 C12.8,2.02 14.577,3.656 16.313,5.336 C18.05,7.017 18.207,9.413 16.623,11.236 C14.28,13.93 11.859,16.556 9.471,19.211 C9.097,19.627 8.718,20.041 8.346,20.459 C6.821,22.17 4.123,22.347 2.378,20.849 C0.622,19.341 0.366,16.654 1.877,14.907 C3.561,12.962 5.304,11.068 7.02,9.15 C7.146,9.01 7.263,8.863 7.41,8.689 Z" id="path-7"></path>
    </defs>
    <g id="Page-1" stroke="none" stroke-width="1" fill="none" fill-rule="evenodd">
        <g id="icon-baby">
            <g id="Group-15" transform="translate(0.000000, 21.000000)">
                <mask id="mask-2" fill="white">
                    <use xlink:href="#path-1"></use>
                </mask>
                <g id="Clip-14"></g>
                <polygon id="Fill-13" fill="#00A5DB" mask="url(#mask-2)" points="0.76 20.96 51.28 20.96 51.28 0.2 0.76 0.2"></polygon>
            </g>
            <g id="Group-18" transform="translate(14.000000, 0.000000)">
                <mask id="mask-4" fill="white">
                    <use xlink:href="#path-3"></use>
                </mask>
                <g id="Clip-17"></g>
                <polygon id="Fill-16" fill="#00A5DB" mask="url(#mask-4)" points="0.68 23.48 23.48 23.48 23.48 0.68 0.68 0.68"></polygon>
            </g>
            <g id="Group-21" transform="translate(7.000000, 47.000000)">
                <mask id="mask-6" fill="white">
                    <use xlink:href="#path-5"></use>
                </mask>
                <g id="Clip-20"></g>
                <polygon id="Fill-19" fill="#00A5DB" mask="url(#mask-6)" points="0.36 21.96 17.28 21.96 17.28 0.12 0.36 0.12"></polygon>
            </g>
            <g id="Group-24" transform="translate(27.000000, 47.000000)">
                <mask id="mask-8" fill="white">
                    <use xlink:href="#path-7"></use>
                </mask>
                <g id="Clip-23"></g>
                <polygon id="Fill-22" fill="#00A5DB" mask="url(#mask-8)" points="0.88 21.96 17.8 21.96 17.8 0.12 0.88 0.12"></polygon>
            </g>
        </g>
    </g>
</svg>