<?xml version="1.0" encoding="UTF-8"?>
<svg width="67px" height="82px" viewBox="0 0 67 82" version="1.1" xmlns="http://www.w3.org/2000/svg" xmlns:xlink="http://www.w3.org/1999/xlink">
    <!-- Generator: Sketch 44.1 (41455) - http://www.bohemiancoding.com/sketch -->
    <title>icon-acrobat</title>
    <desc>Created with Sketch.</desc>
    <defs>
        <path d="M47.323,76.182 C52.021,71.524 56.566,67.019 61.241,62.385 C57.576,62.385 54.136,62.381 50.696,62.387 C48.721,62.39 47.38,63.533 47.342,65.452 C47.274,68.949 47.323,72.449 47.323,76.182 Z M35.877,20.788 C35.695,18.342 35.613,16.464 34.596,14.794 C33.027,12.217 29.871,11.989 27.979,14.344 C27.534,14.898 27.194,15.563 26.935,16.226 C25.91,18.848 26.067,21.539 26.891,24.135 C27.532,26.158 28.568,28.059 29.382,30.033 C29.541,30.418 29.628,30.924 29.515,31.309 C28.881,33.472 28.203,35.624 27.489,37.763 C25.9,42.521 24.334,47.29 21.836,51.694 C21.628,52.061 21.266,52.397 20.895,52.614 C18.18,54.199 15.409,55.697 12.726,57.331 C10.732,58.544 9.638,60.416 9.14,62.649 C8.597,65.08 9.421,67.065 11.526,68.243 C13.526,69.361 15.991,69.09 17.7,67.439 C18.42,66.743 19.053,65.908 19.532,65.036 C21.108,62.165 22.579,59.24 24.137,56.359 C24.367,55.932 24.784,55.463 25.224,55.303 C30.741,53.301 36.278,51.353 41.807,49.384 C42.245,49.229 42.563,49.292 42.927,49.608 C43.993,50.531 45.091,51.418 46.199,52.292 C48.377,54.01 50.821,54.766 53.624,54.196 C55.549,53.804 57.175,53.054 57.791,51.026 C58.749,47.867 56.954,45.054 53.523,44.424 C50.85,43.932 48.14,43.741 45.472,44.304 C44.105,44.592 43.35,44.176 42.543,43.163 C39.366,39.174 36.647,34.91 34.259,30.437 C34.148,30.229 34.129,29.933 34.17,29.694 C34.325,28.773 34.526,27.859 34.703,26.941 C35.131,24.708 35.555,22.474 35.877,20.788 Z M0.498,40.809 C0.498,30.946 0.504,21.083 0.494,11.22 C0.49,7.431 1.952,4.367 5.142,2.157 C6.875,0.956 8.842,0.38 10.957,0.379 C25.933,0.367 40.908,0.365 55.884,0.377 C61.494,0.381 66.239,4.873 66.313,10.348 C66.393,16.274 66.35,22.202 66.352,28.129 C66.356,38.641 66.349,49.152 66.364,59.663 C66.365,60.209 66.2,60.589 65.807,60.978 C59.116,67.579 52.437,74.192 45.77,80.816 C45.374,81.211 44.973,81.355 44.417,81.355 C33.425,81.341 22.433,81.347 11.441,81.344 C5.653,81.343 1.374,77.717 0.572,72.123 C0.487,71.532 0.501,70.926 0.5,70.327 C0.496,60.487 0.498,50.648 0.498,40.809 Z" id="path-1"></path>
        <path d="M5.46,0.253 C7.598,3.388 9.784,6.592 12.002,9.844 C8.248,11.103 4.416,12.387 0.7,13.633 C2.283,9.183 3.888,4.671 5.46,0.253 Z" id="path-3"></path>
        <path d="M4.848,0.343 C3.87,2.01 2.905,3.685 1.907,5.341 C1.599,5.852 1.105,5.927 0.564,5.664 C0.016,5.397 0.192,4.947 0.278,4.535 C0.521,3.359 1.109,2.399 2.16,1.738 C2.991,1.215 3.822,0.691 4.652,0.168 L4.848,0.343 Z" id="path-5"></path>
        <path d="M0.134,0.068 C1.493,0.197 2.855,0.308 4.21,0.467 C4.589,0.512 5.005,0.626 5.302,0.842 C5.525,1.005 5.68,1.382 5.679,1.664 C5.679,1.822 5.319,2.087 5.092,2.12 C3.939,2.287 2.794,2.3 1.788,1.569 C1.207,1.148 0.619,0.735 0.034,0.319 C0.068,0.235 0.101,0.151 0.134,0.068 Z" id="path-7"></path>
        <path d="M1.016,6.382 C0.237,4.341 -0.02,2.308 1.029,0.275 C1.88,2.307 1.713,4.346 1.016,6.382 Z" id="path-9"></path>
    </defs>
    <g id="Page-1" stroke="none" stroke-width="1" fill="none" fill-rule="evenodd">
        <g id="icon-acrobat">
            <g id="Group-72">
                <mask id="mask-2" fill="white">
                    <use xlink:href="#path-1"></use>
                </mask>
                <g id="Clip-71"></g>
                <polygon id="Fill-70" fill="#00A5DB" mask="url(#mask-2)" points="0.44 81.44 66.44 81.44 66.44 0.32 0.44 0.32"></polygon>
            </g>
            <g id="Group-75" transform="translate(27.000000, 36.000000)">
                <mask id="mask-4" fill="white">
                    <use xlink:href="#path-3"></use>
                </mask>
                <g id="Clip-74"></g>
                <polygon id="Fill-73" fill="#00A5DB" mask="url(#mask-4)" points="0.68 13.64 12.08 13.64 12.08 0.2 0.68 0.2"></polygon>
            </g>
            <g id="Group-78" transform="translate(13.000000, 59.000000)">
                <mask id="mask-6" fill="white">
                    <use xlink:href="#path-5"></use>
                </mask>
                <g id="Clip-77"></g>
                <polygon id="Fill-76" fill="#00A5DB" mask="url(#mask-6)" points="0.16 5.88 4.96 5.88 4.96 0.12 0.16 0.12"></polygon>
            </g>
            <g id="Group-81" transform="translate(48.000000, 48.000000)">
                <mask id="mask-8" fill="white">
                    <use xlink:href="#path-7"></use>
                </mask>
                <g id="Clip-80"></g>
                <polygon id="Fill-79" fill="#00A5DB" mask="url(#mask-8)" points="-0.04 2.24 5.72 2.24 5.72 -0.04 -0.04 -0.04"></polygon>
            </g>
            <g id="Group-84" transform="translate(30.000000, 17.000000)">
                <mask id="mask-10" fill="white">
                    <use xlink:href="#path-9"></use>
                </mask>
                <g id="Clip-83"></g>
                <polygon id="Fill-82" fill="#00A5DB" mask="url(#mask-10)" points="0.32 6.48 1.64 6.48 1.64 0.24 0.32 0.24"></polygon>
            </g>
        </g>
    </g>
</svg>