<?xml version="1.0" encoding="UTF-8"?>
<svg width="74px" height="71px" viewBox="0 0 74 71" version="1.1" xmlns="http://www.w3.org/2000/svg" xmlns:xlink="http://www.w3.org/1999/xlink">
    <!-- Generator: Sketch 44.1 (41455) - http://www.bohemiancoding.com/sketch -->
    <title>icon-calendar</title>
    <desc>Created with Sketch.</desc>
    <defs>
        <path d="M68.961,0.105 L73.525,0.105 L73.525,44.073 C73.525,46.502 71.48,48.472 68.961,48.472 L5.058,48.472 C2.537,48.472 0.494,46.502 0.494,44.073 L0.494,0.105 L5.058,0.105 L5.058,41.874 C5.058,43.09 6.079,44.073 7.341,44.073 L66.678,44.073 C67.938,44.073 68.961,43.09 68.961,41.874 L68.961,0.105 Z M14.187,35.281 C12.925,35.281 11.905,34.297 11.905,33.081 L11.905,26.488 C11.905,25.272 12.925,24.29 14.187,24.29 L23.316,24.29 C24.576,24.29 25.598,25.272 25.598,26.488 L25.598,33.081 C25.598,34.297 24.576,35.281 23.316,35.281 L14.187,35.281 Z M14.187,19.893 C12.925,19.893 11.905,18.908 11.905,17.692 L11.905,11.097 C11.905,9.884 12.925,8.899 14.187,8.899 L23.316,8.899 C24.576,8.899 25.598,9.884 25.598,11.097 L25.598,17.692 C25.598,18.908 24.576,19.893 23.316,19.893 L14.187,19.893 Z M32.445,35.281 C31.183,35.281 30.163,34.297 30.163,33.081 L30.163,26.488 C30.163,25.272 31.183,24.29 32.445,24.29 L41.574,24.29 C42.834,24.29 43.856,25.272 43.856,26.488 L43.856,33.081 C43.856,34.297 42.834,35.281 41.574,35.281 L32.445,35.281 Z M32.445,19.893 C31.183,19.893 30.163,18.908 30.163,17.692 L30.163,11.097 C30.163,9.884 31.183,8.899 32.445,8.899 L41.574,8.899 C42.834,8.899 43.856,9.884 43.856,11.097 L43.856,17.692 C43.856,18.908 42.834,19.893 41.574,19.893 L32.445,19.893 Z M50.703,35.281 C49.441,35.281 48.421,34.297 48.421,33.081 L48.421,26.488 C48.421,25.272 49.441,24.29 50.703,24.29 L59.832,24.29 C61.091,24.29 62.114,25.272 62.114,26.488 L62.114,33.081 C62.114,34.297 61.091,35.281 59.832,35.281 L50.703,35.281 Z M50.703,19.893 C49.441,19.893 48.421,18.908 48.421,17.692 L48.421,11.097 C48.421,9.884 49.441,8.899 50.703,8.899 L59.832,8.899 C61.091,8.899 62.114,9.884 62.114,11.097 L62.114,17.692 C62.114,18.908 61.091,19.893 59.832,19.893 L50.703,19.893 Z" id="path-1"></path>
        <path d="M68.961,0.122 C71.48,0.122 73.525,2.091 73.525,4.521 L73.525,22.105 L0.494,22.105 L0.494,4.521 C0.494,2.091 2.537,0.122 5.058,0.122 L68.961,0.122 Z M27.881,13.314 C29.14,13.314 30.163,12.329 30.163,11.116 C30.163,9.9 29.14,8.917 27.881,8.917 C26.619,8.917 25.598,9.9 25.598,11.116 C25.598,12.329 26.619,13.314 27.881,13.314 Z M46.138,13.314 C47.398,13.314 48.421,12.329 48.421,11.116 C48.421,9.9 47.398,8.917 46.138,8.917 C44.879,8.917 43.856,9.9 43.856,11.116 C43.856,12.329 44.879,13.314 46.138,13.314 Z" id="path-3"></path>
    </defs>
    <g id="Page-1" stroke="none" stroke-width="1" fill="none" fill-rule="evenodd">
        <g id="icon-calendar">
            <g id="Group-3" transform="translate(0.000000, 22.000000)">
                <mask id="mask-2" fill="white">
                    <use xlink:href="#path-1"></use>
                </mask>
                <g id="Clip-2"></g>
                <polygon id="Fill-1" fill="#00A5DB" mask="url(#mask-2)" points="0.44 48.52 73.64 48.52 73.64 0.04 0.44 0.04"></polygon>
            </g>
            <g id="Group-6">
                <mask id="mask-4" fill="white">
                    <use xlink:href="#path-3"></use>
                </mask>
                <g id="Clip-5"></g>
                <polygon id="Fill-4" fill="#00A5DB" mask="url(#mask-4)" points="0.44 22.16 73.64 22.16 73.64 0.08 0.44 0.08"></polygon>
            </g>
        </g>
    </g>
</svg>