<?xml version="1.0" encoding="UTF-8"?>
<svg width="83px" height="83px" viewBox="0 0 83 83" version="1.1" xmlns="http://www.w3.org/2000/svg" xmlns:xlink="http://www.w3.org/1999/xlink">
    <!-- Generator: Sketch 44.1 (41455) - http://www.bohemiancoding.com/sketch -->
    <title>icon-clock</title>
    <desc>Created with Sketch.</desc>
    <defs>
        <path d="M0.766,3.137 C0.766,1.8 1.847,0.716 3.2,0.716 C4.545,0.716 5.635,1.825 5.635,3.137 L5.635,22.619 C5.635,23.957 4.554,25.041 3.2,25.041 C1.856,25.041 0.766,23.932 0.766,22.619 L0.766,3.137 Z" id="path-1"></path>
        <path d="M22.679,0.174 C24.016,0.174 25.1,1.254 25.1,2.608 C25.1,3.953 23.992,5.042 22.679,5.042 L3.197,5.042 C1.86,5.042 0.776,3.962 0.776,2.608 C0.776,1.264 1.884,0.174 3.197,0.174 L22.679,0.174 Z" id="path-3"></path>
    </defs>
    <g id="Page-1" stroke="none" stroke-width="1" fill="none" fill-rule="evenodd">
        <g id="icon-clock" transform="translate(4.000000, 5.000000)">
            <path d="M37.2,73.095 C57.367,73.095 73.716,56.759 73.716,36.608 C73.716,16.457 57.367,0.122 37.2,0.122 C17.033,0.122 0.685,16.457 0.685,36.608 C0.685,56.759 17.033,73.095 37.2,73.095 Z" id="Stroke-25" stroke="#00A5DB" stroke-width="9.332"></path>
            <g id="Group-29" transform="translate(34.000000, 14.000000)">
                <mask id="mask-2" fill="white">
                    <use xlink:href="#path-1"></use>
                </mask>
                <g id="Clip-28"></g>
                <polygon id="Fill-27" fill="#00A5DB" mask="url(#mask-2)" points="0.68 25.08 5.72 25.08 5.72 0.6 0.68 0.6"></polygon>
            </g>
            <g id="Group-32" transform="translate(34.000000, 34.000000)">
                <mask id="mask-4" fill="white">
                    <use xlink:href="#path-3"></use>
                </mask>
                <g id="Clip-31"></g>
                <polygon id="Fill-30" fill="#00A5DB" mask="url(#mask-4)" points="0.68 5.08 25.16 5.08 25.16 0.16 0.68 0.16"></polygon>
            </g>
        </g>
    </g>
</svg>