<?xml version="1.0" encoding="UTF-8"?>
<svg width="903px" height="269px" viewBox="0 0 903 269" version="1.1" xmlns="http://www.w3.org/2000/svg" xmlns:xlink="http://www.w3.org/1999/xlink">
    <!-- Generator: Sketch 44.1 (41455) - http://www.bohemiancoding.com/sketch -->
    <title>rainbow-footer</title>
    <desc>Created with Sketch.</desc>
    <defs>
        <polygon id="path-1" points="208.84116 268.470255 0 268.470255 0 0.350311615 208.84116 0.350311615 417.68232 0.350311615 417.68232 268.470255"></polygon>
    </defs>
    <g id="7.0-About-Us" stroke="none" stroke-width="1" fill="none" fill-rule="evenodd">
        <g id="7.0-About_Us" transform="translate(-65.000000, -2058.000000)">
            <g id="rainbow-footer" transform="translate(65.000000, 2058.000000)">
                <g id="RAINBOW" transform="translate(238.000000, 0.000000)">
                    <g id="Group-3" transform="translate(0.000000, 0.414561)">
                        <mask id="mask-2" fill="white">
                            <use xlink:href="#path-1"></use>
                        </mask>
                        <g id="Clip-2"></g>
                        <path d="M18.6873867,268.470255 C18.6873867,268.470255 9.72128667,227.932011 9.72128667,206.58289 C9.72128667,154.027734 30.4331867,104.681983 68.0415756,67.5191218 C105.651513,30.3585552 155.653601,9.92345609 208.841005,9.92345609 C262.028409,9.92345609 312.03282,30.4044476 349.640435,67.565779 C387.249598,104.727875 407.962272,154.01932 407.962272,206.574476 C407.962272,227.925892 404.526157,248.854334 397.943431,268.470255 L408.082253,268.470255 C414.310453,248.947649 417.68232,228.179065 417.68232,206.58289 C417.68232,92.6145892 324.181139,0.350311615 208.841005,0.350311615 C93.5016459,0.350311615 -0.000309629628,92.6145892 -0.000309629628,206.58289 C-0.000309629628,228.179065 2.66250519,248.947649 8.56249778,268.470255 L18.6873867,268.470255 Z" id="Fill-1" fill="#FF501F" mask="url(#mask-2)"></path>
                    </g>
                    <path d="M28.9831911,268.291045 C22.357117,248.706484 19.44118,227.829289 19.44118,206.40368 C19.44118,156.414671 39.1421393,109.480564 74.9151985,74.1319802 C110.688258,38.7841615 158.251239,19.3495156 208.841624,19.3495156 C259.432784,19.3495156 306.994217,38.8323484 342.767276,74.1786374 C378.540336,109.525691 398.241295,156.405493 398.241295,206.395266 C398.241295,227.820875 394.61321,248.70419 387.658154,268.291045 L397.94405,268.291045 C404.526002,248.677419 407.962117,227.753567 407.962117,206.40368 C407.962117,153.848524 387.249443,104.564728 349.64028,67.4026317 C312.032665,30.2413003 262.028254,9.77560623 208.841624,9.77560623 C155.654221,9.77560623 105.651358,30.2413003 68.0414207,67.4026317 C30.4330319,104.564728 9.72113185,153.848524 9.72113185,206.40368 C9.72113185,227.752802 12.4334874,248.678184 18.6872319,268.291045 L28.9831911,268.291045 Z" id="Fill-4" fill="#FF7047"></path>
                    <path d="M39.3485074,268.291045 C32.3036593,248.739374 29.1624667,227.916484 29.1624667,206.40368 C29.1624667,158.979289 47.8517111,114.456824 81.7886667,80.9232833 C115.725622,47.3905071 160.847174,28.9547847 208.841315,28.9547847 C256.83623,28.9547847 301.957007,47.4379292 335.893963,80.9699405 C369.830144,114.504246 388.520163,158.97164 388.520163,206.395266 C388.520163,227.908071 384.666048,248.737079 377.294541,268.291045 L387.659393,268.291045 C394.613674,248.706484 398.241759,227.829289 398.241759,206.40368 C398.241759,156.413142 378.540026,109.541754 342.767741,74.1946997 C306.994681,38.846881 259.432474,19.3808754 208.841315,19.3808754 C158.25093,19.3808754 110.687948,38.846881 74.9148889,74.1946997 C39.1418296,109.543283 19.4408704,156.414671 19.4408704,206.40368 C19.4408704,227.829289 22.3575815,248.706484 28.9828815,268.291045 L39.3485074,268.291045 Z" id="Fill-6" fill="#FF9A00"></path>
                    <path d="M49.8007522,268.291045 C42.2821707,248.776853 38.8824374,228.018212 38.8824374,206.40368 C38.8824374,161.545436 56.5607411,119.43538 88.662367,87.7145864 C120.763219,55.9960878 163.444115,38.559289 208.841237,38.559289 C254.23836,38.559289 296.919256,56.0442748 329.020882,87.7627734 C361.121734,119.480507 378.799263,161.537023 378.799263,206.395266 C378.799263,228.011329 374.68893,248.774558 366.842915,268.291045 L377.294463,268.291045 C384.666745,248.739374 388.520086,227.916484 388.520086,206.40368 C388.520086,158.979289 369.830841,114.519544 335.893886,80.9860028 C301.95693,47.4532266 256.836152,28.9853796 208.841237,28.9853796 C160.847097,28.9853796 115.725545,47.4532266 81.7885893,80.9860028 C47.8516337,114.519544 29.1623893,158.979289 29.1623893,206.40368 C29.1623893,227.916484 32.3035819,248.739374 39.34843,268.291045 L49.8007522,268.291045 Z" id="Fill-8" fill="#FFF200"></path>
                    <path d="M60.2734326,268.291045 C52.2772474,248.997136 48.6034919,228.051867 48.6034919,206.40368 C48.6034919,164.110819 65.2708548,124.412405 95.536377,94.5058895 C125.801125,64.6016686 166.040592,48.1645581 208.84147,48.1645581 C251.643121,48.1645581 291.881814,64.6483258 322.147336,94.5533116 C352.41131,124.458297 369.079447,164.102405 369.079447,206.395266 C369.079447,228.044983 364.699736,248.994841 356.373021,268.291045 L366.843147,268.291045 C374.689936,248.776853 378.799496,228.018212 378.799496,206.40368 C378.799496,161.543907 361.121192,119.496569 329.021114,87.7773059 C296.919488,56.0588074 254.238592,38.5906487 208.84147,38.5906487 C163.443573,38.5906487 120.763451,56.0588074 88.6625993,87.7773059 C56.5609733,119.498099 38.8818956,161.545436 38.8818956,206.40368 C38.8818956,228.018212 42.282403,248.776853 49.8009844,268.291045 L60.2734326,268.291045 Z" id="Fill-10" fill="#89D800"></path>
                    <path d="M70.960067,268.291045 C62.3399781,249.053737 58.3240819,228.199487 58.3240819,206.40368 C58.3240819,166.676201 73.9805041,129.390195 102.409923,101.297958 C130.838567,73.2072493 168.637378,57.7698272 208.841237,57.7698272 C249.045871,57.7698272 286.845456,73.2554363 315.2741,101.344615 C343.702745,129.436853 359.358393,166.667788 359.358393,206.395266 C359.358393,228.191074 354.639637,249.049912 345.688245,268.291045 L356.374337,268.291045 C364.701052,248.997136 369.079215,228.051867 369.079215,206.40368 C369.079215,164.110819 352.411852,124.475125 322.147104,94.5693739 C291.881582,64.6643881 251.642889,48.1959178 208.841237,48.1959178 C166.04036,48.1959178 125.801667,64.6643881 95.5361448,94.5693739 C65.2706226,124.475125 48.6032596,164.110819 48.6032596,206.40368 C48.6032596,228.051867 52.2770152,248.997136 60.2732004,268.291045 L70.960067,268.291045 Z" id="Fill-12" fill="#00A3DA"></path>
                    <path d="M81.5812256,265.849571 C72.3039478,246.845548 67.9110774,227.789184 67.9110774,205.904651 C67.9110774,168.742555 82.5565589,133.868957 109.149874,107.590232 C135.742414,81.3153311 171.099796,66.8753027 208.707411,66.8753027 C246.316574,66.8753027 281.673955,81.3619883 308.26727,107.637654 C334.859037,133.915614 349.504518,168.734906 349.504518,205.896238 C349.504518,227.7823 344.414981,248.785699 334.804077,267.792017 L345.555966,267.792017 C354.505811,248.554708 359.22534,227.700459 359.22534,205.904651 C359.22534,166.176408 343.568918,128.953121 315.141048,100.861648 C286.711629,72.7724699 248.912818,57.3021583 208.707411,57.3021583 C168.503552,57.3021583 130.705514,72.7724699 102.276096,100.861648 C73.8474515,128.953121 58.1902552,166.177172 58.1902552,205.904651 C58.1902552,227.700459 62.2069256,248.554708 70.8262404,267.792017 L81.5812256,265.849571 Z" id="Fill-14" fill="#A476E1"></path>
                </g>
                <path d="M726.216367,90.8537522 C724.668877,89.5608441 723.122156,88.2687051 721.574666,86.975797 C720.021792,86.0036162 718.40508,85.2391007 716.73299,84.6553307 C716.539169,79.5513817 714.507127,74.5958748 711.03758,70.8286744 L706.74814,67.2445269 C703.394732,65.1455702 699.741362,64.0280238 695.787263,63.893426 L690.22722,64.465659 C686.568467,65.350928 683.350426,67.0630122 680.570019,69.6003732 C679.137899,70.9194318 677.906521,72.4307729 676.8905,74.0720971 C676.806665,73.8744306 676.737443,73.7152206 676.696679,73.6160028 C675.916012,71.7416321 674.4139,70.2464427 673.241745,68.6035803 C671.833468,67.4283491 670.425959,66.2515797 669.017681,65.0748102 C666.453401,63.4704043 663.708375,62.4566905 660.787218,62.0175171 C660.305742,57.5027219 658.372917,53.1855932 655.281782,49.8283393 C651.522273,45.7450262 645.874549,43 640.266051,43 C638.440904,43.1884369 636.616527,43.3761047 634.791381,43.5637725 C631.189543,44.4351972 628.019957,46.1203618 625.282622,48.6200355 C621.103168,52.4679946 618.6158,57.9557397 618.455052,63.6357673 C618.431978,64.4410468 618.461974,65.2455572 618.533503,66.0454527 C617.032161,66.1992788 615.530049,66.3546431 614.029476,66.5092383 C610.590694,67.3414374 607.564166,68.9504581 604.950661,71.3370695 C601.192691,74.7966179 598.869148,79.6444465 598.482275,84.7260907 C598.22154,84.7130155 597.962343,84.7030168 597.701608,84.7030168 C592.922232,84.7030168 588.407437,86.2520453 584.858669,89.5200802 C581.276829,92.8181111 579.144031,97.5221124 579.007126,102.389938 C578.873297,107.103938 580.629991,111.764868 583.822651,115.232877 C587.045307,118.733189 591.886213,121.085959 596.694047,121.085959 C597.352423,121.085959 598.005414,121.052886 598.650715,120.993663 C600.083605,123.041088 601.910289,124.820856 604.057701,126.182986 C607.049618,128.055049 610.309962,129.051842 613.837963,129.172595 C618.945757,129.317192 623.598996,127.39052 627.41619,124.080183 C628.325302,123.291825 629.104431,122.360408 629.852026,121.406686 C632.946237,123.264905 636.301953,124.264006 639.926095,124.388605 C641.69048,124.20709 643.454096,124.024806 645.216943,123.84406 C648.605731,123.023398 651.59611,121.451296 654.192694,119.140059 C655.136417,122.519618 656.86696,125.672283 659.262032,128.273482 C663.198441,132.548309 669.109977,135.422549 674.982287,135.422549 C680.819987,135.422549 686.333113,133.529719 690.667163,129.539471 C692.203885,128.124271 693.516791,126.495253 694.58742,124.722407 C695.245796,125.271566 695.904171,125.820725 696.561008,126.371423 C700.190535,128.641896 704.143095,129.850968 708.421768,129.997103 C710.42766,129.790976 712.432782,129.583311 714.438674,129.377184 C718.396619,128.418848 721.879241,126.566782 724.888079,123.821756 C729.479788,119.592308 732.214815,113.561557 732.390946,107.320064 C732.561693,101.275468 730.30891,95.2993256 726.216367,90.8537522" id="Fill-3" fill="#FFFFFF"></path>
                <path d="M86.014549,116.959655 C85.1103922,116.204244 84.2066848,115.449282 83.302528,114.693871 C82.3952255,114.125852 81.4506244,113.679166 80.4736677,113.338085 C80.3604234,110.355986 79.1731559,107.460617 77.1459932,105.259543 L74.6397893,103.165423 C72.6804833,101.939059 70.5459183,101.286107 68.235645,101.207465 L64.9870618,101.541805 C62.8493511,102.059044 60.9691364,103.059368 59.3446201,104.54188 C58.5078706,105.31257 57.7884099,106.195606 57.1947762,107.154587 C57.1457935,107.039096 57.1053491,106.946074 57.0815319,106.888104 C56.625409,105.79296 55.7477658,104.919361 55.0629075,103.959481 C54.2400888,103.272825 53.4177196,102.58527 52.594901,101.897716 C51.0966611,100.960305 49.4928163,100.368019 47.7860631,100.111422 C47.5047499,97.4735489 46.3754527,94.9511671 44.5693861,92.9896143 C42.3728064,90.6038447 39.0729936,89 35.7960993,89 C34.7297156,89.1100986 33.6637813,89.2197478 32.5973975,89.3293971 C30.4929412,89.838547 28.6410375,90.8231432 27.0416866,92.283635 C24.5997443,94.5318936 23.1464426,97.7382349 23.0525218,101.056922 C23.0390403,101.527425 23.0565662,101.997478 23.0983587,102.464836 C22.2211649,102.554712 21.3435216,102.645487 20.4667771,102.735813 C18.4575898,103.222045 16.6892712,104.162152 15.1622708,105.556585 C12.9665899,107.577905 11.6090066,110.410361 11.3829674,113.379428 C11.2306269,113.371789 11.0791851,113.365947 10.9268446,113.365947 C8.13438419,113.365947 5.49651126,114.271002 3.42306226,116.180427 C1.33028982,118.107377 0.0841532571,120.855798 0.00416324339,123.699938 C-0.0740292419,126.4542 0.952359474,129.177456 2.81774457,131.20372 C4.70065557,133.248858 7.5290665,134.623518 10.338154,134.623518 C10.7228251,134.623518 11.1043505,134.604194 11.4813821,134.569592 C12.3185809,135.765847 13.3858634,136.805717 14.6405382,137.601573 C16.3886346,138.695369 18.2935653,139.277768 20.354881,139.348321 C23.3392275,139.432805 26.0579892,138.307103 28.2882726,136.372962 C28.8194422,135.912346 29.2746663,135.368144 29.7114657,134.81091 C31.5193299,135.896617 33.479984,136.480364 35.5974724,136.553164 C36.628355,136.44711 37.6587881,136.340607 38.6887719,136.235002 C40.6687494,135.755511 42.415947,134.836974 43.933061,133.486581 C44.4844528,135.461166 45.4955626,137.303183 46.8949384,138.822993 C49.194876,141.320659 52.6488268,143 56.0798592,143 C59.4906693,143 62.7118402,141.894071 65.2441083,139.562676 C66.1419738,138.735813 66.909069,137.784022 67.5346089,136.748196 C67.91928,137.069055 68.303951,137.389914 68.6877233,137.711671 C70.8083575,139.038247 73.1177321,139.744676 75.6176447,139.830059 C76.7896332,139.709624 77.9611724,139.588291 79.1331609,139.467857 C81.4456812,138.907927 83.4804833,137.825815 85.2384661,136.22197 C87.9212772,133.750818 89.51928,130.227213 89.6221885,126.580477 C89.7219513,123.048783 88.4057111,119.557084 86.014549,116.959655" id="Fill-3" fill="#FFFFFF"></path>
                <path d="M257.873261,53.6342151 C256.148123,49.9409633 253.636933,46.9003622 250.332737,44.5124118 C248.503255,43.5445683 246.673773,42.5767248 244.844292,41.6081855 C243.21654,41.0167643 241.581832,40.6201641 239.926256,40.395424 C240.52449,38.6030697 240.920993,36.739049 241.080986,34.8402389 C241.602701,28.6616261 239.641052,22.4148259 235.70384,17.6284884 C234.194344,16.2160353 232.684848,14.8042779 231.175352,13.3918248 C227.592907,10.8591501 223.613959,9.39451277 219.238507,9 C217.17947,9.09671477 215.113478,9.19342954 213.047485,9.29014432 C208.943325,10.0443804 205.27045,11.7414115 202.035815,14.3798462 C198.829005,17.0182808 196.380422,20.4805305 194.912663,24.3275519 C191.163269,19.6956797 185.688737,16.4964385 179.442066,16.1471521 C172.882366,15.7797751 166.66352,18.1231949 162.141988,22.2965417 C162.065469,22.2046974 162.002864,22.11007 161.926345,22.0196174 L157.112652,17.5164662 C153.300653,14.82376 149.071281,13.2679742 144.424537,12.848413 C142.233333,12.9513899 140.035173,13.0536709 137.843969,13.155952 C133.482429,13.9581976 129.573043,15.7616846 126.136678,18.5664129 C120.884744,22.8893545 117.53881,29.2857495 116.968402,36.0676119 C116.655372,39.733728 117.177088,43.4221093 118.415292,46.8509611 C115.48673,47.357496 112.725117,48.5577333 110.33914,50.5205561 C106.735826,53.482533 104.447235,57.8660083 104.057688,62.5131878 C103.278593,71.7727575 110.48522,80.8061955 119.966525,81.3370831 C124.536751,81.5924379 128.933072,80.3525406 132.501604,77.4176996 C133.176356,76.8596762 133.809371,76.2508602 134.393692,75.599601 C136.042312,78.7445706 138.31699,81.3746557 141.224684,83.4801155 L146.574004,86.3078049 C149.523434,87.3834958 152.528514,87.8288012 155.582288,87.6597243 C158.469112,87.5393527 161.25855,86.8658283 163.943644,85.6349762 C166.9209,84.2594 169.494695,82.2576129 171.560687,79.8077373 C171.66503,80.0477847 171.755461,80.2906154 171.86676,80.5278796 C173.605811,84.2684452 176.151782,87.3487063 179.497716,89.7672714 C183.010598,92.2533281 186.913029,93.6894381 191.205006,94.076993 C191.434561,94.0825593 191.650203,94.1020414 191.879758,94.1375267 C195.942181,94.4596773 199.830699,93.7722371 203.538355,92.0745102 C207.232099,90.3517348 210.278916,87.8371507 212.664894,84.5307579 C214.570894,81.8310938 215.843879,78.8969485 216.504719,75.7359758 C218.111602,78.3521452 220.226287,80.655905 222.751389,82.4593919 C226.236447,84.9231834 230.104097,86.3474649 234.354337,86.7315408 C238.437628,87.0550831 242.333102,86.3655555 246.054671,84.6615664 C248.037189,83.8071366 249.838846,82.4044245 251.577897,81.2327146 C254.791663,78.5650568 257.128947,75.2711883 258.582794,71.3511089 C260.69748,65.6080605 260.433144,59.1866172 257.873261,53.6342151" id="Fill-223" fill="#FFFFFF"></path>
                <path d="M901.486744,40.7589608 C900.259241,38.13107 898.472433,35.9675654 896.12137,34.2684469 C894.819624,33.579789 893.517877,32.8911311 892.216131,32.2019782 C891.057923,31.7811592 889.894765,31.4989629 888.716759,31.3390517 C889.142425,30.0637227 889.424553,28.7374003 889.538394,27.3863238 C889.909614,22.9900032 888.513825,18.5451646 885.712348,15.1395014 C884.638283,14.1344866 883.564219,13.129967 882.490154,12.1249522 C879.941107,10.3228568 877.109932,9.28071101 873.99663,9 C872.531546,9.06881628 871.061513,9.13763256 869.59148,9.20644884 C866.671212,9.74311681 864.05782,10.9506197 861.756253,12.8279675 C859.474485,14.7053152 857.732223,17.168839 856.687856,19.9061427 C854.020018,16.6103875 850.124678,14.3340043 845.679932,14.0854736 C841.012453,13.8240707 836.587505,15.4915041 833.37026,18.4610008 C833.315815,18.3956501 833.271268,18.3283191 833.216823,18.2639585 L829.791695,15.0597933 C827.079311,13.1438292 824.06995,12.0368278 820.763613,11.7382938 C819.204487,11.8115659 817.640411,11.8843428 816.081285,11.9571197 C812.977882,12.5279483 810.196203,13.8111986 807.751098,15.8068708 C804.014145,18.8828099 801.633384,23.434091 801.227517,28.259647 C801.004784,30.8682295 801.376005,33.4926547 802.257035,35.9324146 C800.17325,36.2928337 798.208257,37.1468487 796.510542,38.5434726 C793.946646,40.6510331 792.318225,43.7700443 792.041047,47.0766914 C791.486691,53.6652313 796.614483,60.0928699 803.360797,60.4706168 C806.612688,60.6523116 809.74084,59.770077 812.279988,57.6818247 C812.760099,57.2847696 813.210514,56.8515736 813.626281,56.3881776 C814.799337,58.6259445 816.417859,60.4973512 818.486794,61.9954668 L822.293041,64.0074766 C824.391674,64.772872 826.529904,65.089724 828.702782,64.9694192 C830.756868,64.8837702 832.74166,64.4045317 834.652209,63.5287331 C836.77064,62.5499577 838.601994,61.1256092 840.072027,59.3824285 C840.146272,59.5532314 840.210616,59.7260148 840.28981,59.8948374 C841.527212,62.5563937 843.338768,64.748118 845.719528,66.4690201 C848.21908,68.237945 850.995809,69.2597925 854.049716,69.5355527 C854.213053,69.5395134 854.366491,69.5533756 854.529828,69.5786248 C857.420398,69.8078473 860.187228,69.3187072 862.825368,68.1107091 C865.453609,66.8848882 867.621537,65.0956649 869.319252,62.7430393 C870.675444,60.8221244 871.581222,58.7343672 872.051434,56.4852136 C873.194793,58.3467187 874.699474,59.9859324 876.496181,61.2691827 C878.975934,63.0222651 881.727915,64.0356962 884.752124,64.308981 C887.657543,64.5391937 890.429323,64.0485683 893.077362,62.8361146 C894.488,62.2281549 895.769948,61.2300713 897.00735,60.3963546 C899.294068,58.4982135 900.957136,56.1544993 901.991603,53.3652121 C903.496284,49.2788123 903.308199,44.7097084 901.486744,40.7589608" id="Fill-223" fill="#FFFFFF"></path>
            </g>
        </g>
    </g>
</svg>